<svg xmlns="http://www.w3.org/2000/svg" xmlns:xlink="http://www.w3.org/1999/xlink" width="62" height="62" viewBox="0 0 62 62">
  <defs>
    <clipPath id="clip-path">
      <circle id="타원" cx="31" cy="31" r="31" fill="#ffeb00"/>
    </clipPath>
  </defs>
  <g id="kakaotalk_img" clip-path="url(#clip-path)">
    <circle id="타원-2" data-name="타원" cx="31" cy="31" r="31" fill="#ffeb00"/>
    <path id="패스_" data-name="패스 " d="M33.672,19.294c-5.779,0-10.465,3.7-10.465,8.261,0,2.932,1.941,5.505,4.855,6.975l-.986,3.679a.3.3,0,0,0,.075.314.29.29,0,0,0,.4.019l4.24-2.862a13.336,13.336,0,0,0,1.884.138c5.779,0,10.465-3.7,10.465-8.261s-4.686-8.261-10.465-8.261" transform="translate(-1.989 -7.293)" fill="#1e1e1e" fill-rule="evenodd"/>
    <path id="패스" d="M80.282,30.489v3.767H77.6V20.362h1.894l.331.882a3.814,3.814,0,0,1,2.832-1.176c2.63,0,3.88,1.966,3.862,5.146,0,3.326-1.931,5.458-4.689,5.458a5.885,5.885,0,0,1-1.545-.184m0-7.884v6.01a7.734,7.734,0,0,0,.864.055c1.913,0,2.649-1.342,2.649-3.455,0-1.856-.5-2.977-2.023-2.977a3.494,3.494,0,0,0-1.49.367" transform="translate(-60.598 14.206)" fill="#1e1e1e"/>
    <path id="패스-2" data-name="패스" d="M113.171,24.276H114.7v-.331c0-1.1-.625-1.617-1.71-1.617a6.728,6.728,0,0,0-2.758.662l-.736-1.8a7.031,7.031,0,0,1,3.733-1.121c2.575,0,3.972,1.36,3.972,3.951V30.4H115.3l-.276-.845a5.078,5.078,0,0,1-2.979,1.121,2.841,2.841,0,0,1-3.072-3.161c0-2.114,1.471-3.234,4.193-3.234m1.526,3.547V25.985h-1.232c-1.379,0-2.078.5-2.078,1.489,0,.754.386,1.121,1.177,1.121a3.7,3.7,0,0,0,2.133-.772" transform="translate(-81.404 14.206)" fill="#1e1e1e"/>
    <path id="패스-3" data-name="패스" d="M144.327,29.186c-.938,2.5-2.06,4.319-3.7,5.33l-1.655-1.526a9.281,9.281,0,0,0,2.225-2.72l-3.568-9.722,2.667-.717,2.28,7.884,2.262-7.921,2.63.735Z" transform="translate(-100.404 14.387)" fill="#1e1e1e"/>
  </g>
</svg>
