<svg xmlns="http://www.w3.org/2000/svg" xmlns:xlink="http://www.w3.org/1999/xlink" width="62" height="62" viewBox="0 0 62 62">
  <defs>
    <clipPath id="clip-path">
      <rect id="사각형_3039" data-name="사각형 3039" width="62" height="62" fill="none"/>
    </clipPath>
  </defs>
  <g id="naver_img" clip-path="url(#clip-path)">
    <path id="패스_8" data-name="패스 8" d="M31,62h0A31,31,0,1,1,62,31,31,31,0,0,1,31,62" fill="#00de5a"/>
    <path id="패스_9" data-name="패스 9" d="M104.384,78.512l-2.261,5.149-2.557-5.149H97.6l3.623,7.144-1.494,3.336h1.909l4.654-10.48Zm-7.873,7.962H94.642v-.743a3.634,3.634,0,0,1-2.458.906,4.146,4.146,0,0,1,0-8.286,3.634,3.634,0,0,1,2.458.906v-.743h1.869Zm-1.649-3.981a2.445,2.445,0,1,0-2.437,2.64,2.491,2.491,0,0,0,2.437-2.64m-15.948,6.5h1.95V85.8a3.629,3.629,0,0,0,2.376.837,4.146,4.146,0,0,0,0-8.286,3.634,3.634,0,0,0-2.458.906v-.743H78.914ZM83,79.853a2.649,2.649,0,1,1-2.437,2.641A2.491,2.491,0,0,1,83,79.853" transform="translate(-51.733 -51.363)"/>
    <path id="패스_10" data-name="패스 10" d="M37.848,75.624A8.124,8.124,0,1,1,29.724,67.5a8.124,8.124,0,0,1,8.124,8.124m-6.765-3.819v4.085l-2.837-4.085h-2.34v7.637h2.459V75.357L31.2,79.443h2.341V71.806Z" transform="translate(-14.16 -44.25)"/>
  </g>
</svg>
