<svg xmlns="http://www.w3.org/2000/svg" width="55.965" height="61.007" viewBox="0 0 55.965 61.007">
  <g id="icon" transform="translate(-0.006 0.013)">
    <path id="패스_29060" data-name="패스 29060" d="M7.224,57.689a7.2,7.2,0,0,1-1.318-.119h0a7.086,7.086,0,0,1-3.364-1.633C1.316,54.869-.624,52.42.164,48.009L7.47,7.074C8.267,2.608,10.931,1,12.448.438c1.583-.594,4.737-1.108,8.028,2.087l30.2,27.445A7.349,7.349,0,0,1,52.89,36.56a7.132,7.132,0,0,1-1.522,3.284,6.766,6.766,0,0,1-2.362,1.919l-.627.306-37.7,14.878A8.967,8.967,0,0,1,7.224,57.689Zm-1.03-1.73a6.819,6.819,0,0,0,3.887-.531L48.319,40.283A5.2,5.2,0,0,0,50.131,38.8a5.5,5.5,0,0,0,1.178-2.53,5.713,5.713,0,0,0-1.733-5.112L19.388,3.727C16.7,1.124,14.237,1.51,13,1.975c-1.2.442-3.3,1.729-3.948,5.39L1.745,48.3c-.644,3.608.878,5.555,1.842,6.4a5.489,5.489,0,0,0,2.608,1.264Z" transform="translate(3.044 -0.007) rotate(3)" fill="#fff" opacity="0.85"/>
    <path id="패스_29061" data-name="패스 29061" d="M376.612,734.435a6.6,6.6,0,0,1-3.355-.923c-1.311-.774-3.5-2.708-3.5-6.962V683.082c0-4.313,2.2-6.254,3.506-7.027,1.367-.811,4.194-1.8,7.8.6l36.328,22.5a6.762,6.762,0,0,1,3.1,5.629,6.623,6.623,0,0,1-.86,3.245,6.33,6.33,0,0,1-1.839,2.14l-.6.443-36.191,22.408A8.013,8.013,0,0,1,376.612,734.435Zm-.372-8.51Zm-1.032-45.46,1.032,48.734,39.072-24.415Z" transform="translate(-365.052 -673.442)" fill="#fff"/>
  </g>
</svg>
