<svg xmlns="http://www.w3.org/2000/svg" xmlns:xlink="http://www.w3.org/1999/xlink" width="109" height="110" viewBox="0 0 109 110"><defs><style>.a{fill:none;}.b{isolation:isolate;clip-path:url(#a);}.c{fill:#9d9d9d;}.d,.i{fill:#cecece;}.e{fill:url(#b);}.f{fill:#e2e2e2;}.g{fill:#ae8448;}.g,.h{opacity:0.6;}.h{fill:#707070;}.j{fill:#bebebe;}.k,.l,.m{stroke:none;}.l{fill:#c7c7c7;}.m{fill:#dedede;}</style><clipPath id="a"><rect class="a" x="-1" y="3" width="109" height="110"/></clipPath><linearGradient id="b" x1="0.5" y1="1" x2="0.5" gradientUnits="objectBoundingBox"><stop offset="0" stop-color="#fbf9f9"/><stop offset="1" stop-color="#eee"/></linearGradient></defs><g class="b" transform="translate(1 -3)"><path class="c" d="M86.969-64.738,60.761-40.065a13.858,13.858,0,0,1,1.1,4.553,6.92,6.92,0,0,1-1.1,3.605L60.5-18.5a68.644,68.644,0,0,1,.838,7.527c.035,2.669.457,4.26,0,5.871a20.015,20.015,0,0,0-.581,3.914V20.039c2.9-.274,13.954-14.874,13.954-14.874L86.969-7.9a41.5,41.5,0,0,0,1.186-8.649,24.51,24.51,0,0,0-1.186-7.342V-43.352S88.5-45.069,88.5-50.415A112.617,112.617,0,0,0,86.969-64.738Z" transform="translate(-11.287 82.827)"/><g class="d" transform="translate(2.906 82.827)"><path class="k" d="M 50.57736968994141 28.31997108459473 C 48.01393127441406 28.14636611938477 42.00115203857422 24.76443290710449 33.1478385925293 18.51287460327148 C 26.25077438354492 13.64267444610596 20.01679611206055 8.708218574523926 19.95462989807129 8.658941268920898 L 19.93637275695801 8.644474029541016 L 19.91576194763184 8.63362979888916 L 1.41075325012207 -1.104097843170166 C 1.129968762397766 -1.775726199150085 -0.800804615020752 -6.548183441162109 -1.009526491165161 -11.20577049255371 C -1.233404278755188 -16.20175933837891 0.5180290341377258 -21.2150707244873 0.5357512831687927 -21.2651252746582 L 0.5520068407058716 -21.31105995178223 L 0.5498290657997131 -21.3597583770752 L 0.009140157140791416 -33.42546081542969 L 0.006717934273183346 -33.47968292236328 L -0.01799317635595798 -33.52803802490234 C -0.04331539943814278 -33.57761383056641 -2.552093267440796 -38.52974700927734 -2.651381969451904 -42.35231399536133 C -2.741746664047241 -45.83140182495117 -1.349241256713867 -54.14784622192383 -1.063624620437622 -55.81132888793945 L 50.57537078857422 -37.40376663208008 C 50.57645416259766 -33.74666595458984 50.59324645996094 24.0529842376709 50.57736968994141 28.31997108459473 Z"/><path class="l" d="M -0.8672409057617188 -55.47591781616211 C -1.235630035400391 -53.30299377441406 -2.486804962158203 -45.64472961425781 -2.401458740234375 -42.35880279541016 C -2.303680419921875 -38.594482421875 0.1795730590820313 -33.69087219238281 0.2046394348144531 -33.64176940917969 L 0.2540397644042969 -33.54505920410156 L 0.2588958740234375 -33.43666839599609 L 0.7995834350585938 -21.3709602355957 L 0.8039512634277344 -21.27353668212891 L 0.7713851928710938 -21.18161392211914 C 0.7538299560546875 -21.13205909729004 -0.981658935546875 -16.16830444335938 -0.7597808837890625 -11.21697044372559 C -0.5600051879882813 -6.758760452270508 1.235828399658203 -2.18571662902832 1.607089996337891 -1.283288955688477 L 20.03218460083008 8.412384033203125 L 20.07341766357422 8.434085845947266 L 20.10992813110352 8.463027954101563 C 20.17205047607422 8.512275695800781 26.40209579467773 13.44356155395508 33.29368591308594 18.30980682373047 C 43.82048034667969 25.74293899536133 48.37263870239258 27.76848602294922 50.32821273803711 28.04277420043945 C 50.34246444702148 22.12367248535156 50.32687377929688 -32.29499435424805 50.32542419433594 -37.22746276855469 L -0.8672409057617188 -55.47591781616211 M -1.259281158447266 -56.14648056030273 L 50.8253173828125 -37.58008193969727 C 50.8253173828125 -37.58008193969727 50.84525299072266 28.44930648803711 50.8253173828125 28.57658386230469 C 50.80953598022461 28.57685852050781 50.79342269897461 28.57699966430664 50.77737808227539 28.57699966430664 C 44.68041229248047 28.57699966430664 19.79933929443359 8.854862213134766 19.79933929443359 8.854862213134766 L 1.215328216552734 -0.9244365692138672 C 1.215328216552734 -0.9244365692138672 -1.030471801757813 -6.08854866027832 -1.259281158447266 -11.19458198547363 C -1.488094329833984 -16.30061340332031 0.3000831604003906 -21.34856986999512 0.3000831604003906 -21.34856986999512 L -0.2406044006347656 -33.41427993774414 C -0.2406044006347656 -33.41427993774414 -2.799327850341797 -38.42012786865234 -2.901294708251953 -42.3458251953125 C -3.003261566162109 -46.27153778076172 -1.259281158447266 -56.14648056030273 -1.259281158447266 -56.14648056030273 Z"/></g><g class="e" transform="translate(53.731 -13.649)"><path class="k" d="M -0.02073344215750694 58.62303924560547 L -51.60901260375977 40.26485824584961 C -50.12552642822266 39.13447189331055 -44.29549026489258 34.81499862670898 -38.21052932739258 31.96460342407227 C -35.52898406982422 30.70848274230957 -33.35151672363281 30.07157707214355 -31.73862266540527 30.07157707214355 C -30.37139701843262 30.07157707214355 -29.93049049377441 30.55144882202148 -29.90056991577148 30.58608627319336 L -29.79444885253906 30.7442569732666 L -29.61804962158203 30.67237663269043 C -29.55011558532715 30.64871025085449 -22.75851631164551 28.27273559570313 -16.99436950683594 25.35698890686035 C -15.724928855896 24.7147102355957 -14.76190280914307 23.94229698181152 -13.83056926727295 23.19532203674316 C -12.80719566345215 22.3745231628418 -11.84056949615479 21.5992431640625 -10.54815578460693 21.05629539489746 C -4.787155628204346 18.63608360290527 -1.81090235710144 18.37479019165039 -0.798689067363739 18.37479019165039 C -0.5748223662376404 18.37479019165039 -0.4656623899936676 18.38837623596191 -0.4645823836326599 18.38850975036621 L -0.454369068145752 18.38981628417969 L -0.4432357251644135 18.39039039611816 C -0.3431023955345154 18.39484214782715 9.715217590332031 18.87464332580566 22.26443099975586 22.22725677490234 C 33.56404495239258 25.24602508544922 47.14888763427734 30.66399955749512 49.87948226928711 31.76958465576172 L -0.02073344215750694 58.62303924560547 Z"/><path class="m" d="M -0.04147918149828911 58.35029602050781 L 49.29157257080078 31.80205917358398 C 45.69563674926758 30.3573112487793 32.91728973388672 25.33200073242188 22.19989776611328 22.46877670288086 C 9.68031120300293 19.12408256530762 -0.354449063539505 18.64459037780762 -0.4543557167053223 18.64013671875 L -0.4733023941516876 18.63957595825195 L -0.4953690767288208 18.63661575317383 C -0.4963557422161102 18.63649559020996 -0.5956090688705444 18.62479019165039 -0.798689067363739 18.62479019165039 C -1.795742392539978 18.62479019165039 -4.732235908508301 18.88417625427246 -10.45132923126221 21.28677558898926 C -11.71146202087402 21.816162109375 -12.66482257843018 22.58080291748047 -13.67415618896484 23.39035034179688 C -14.61546230316162 24.14533615112305 -15.58883571624756 24.92602920532227 -16.88151550292969 25.58007049560547 C -22.6603832244873 28.50325584411621 -29.46772956848145 30.88475036621094 -29.53582191467285 30.90845680236816 L -29.89387512207031 31.07758903503418 L -30.09817886352539 30.74075698852539 C -30.15746688842773 30.68298721313477 -30.57539367675781 30.32157707214355 -31.73862266540527 30.32157707214355 C -32.82211685180664 30.32157707214355 -34.80604934692383 30.64591026306152 -38.10448837280273 32.19100189208984 C -43.74706268310547 34.83416366577148 -49.17300796508789 38.74789810180664 -51.08842468261719 40.18475341796875 L -0.04147918149828911 58.35029602050781 M 4.271240413800115e-06 58.89577484130859 L -52.124755859375 40.34668350219727 C -52.124755859375 40.34668350219727 -45.44159698486328 35.07580184936523 -38.31658172607422 31.73821640014648 C -35.1071891784668 30.23483467102051 -33.04047393798828 29.82158088684082 -31.73861885070801 29.82158088684082 C -30.15028190612793 29.82158088684082 -29.70027542114258 30.43628311157227 -29.70027542114258 30.43628311157227 C -29.70027542114258 30.43628311157227 -22.92316818237305 28.07585716247559 -17.10720825195313 25.13390922546387 C -14.47656917572021 23.80290985107422 -13.16204929351807 21.88323020935059 -10.64498233795166 20.82580375671387 C -4.805294990539551 18.37253189086914 -1.781584143638611 18.12478828430176 -0.7986957430839539 18.12478828430176 C -0.5500420928001404 18.12478828430176 -0.4321290552616119 18.14062881469727 -0.4321290552616119 18.14062881469727 C -0.4321290552616119 18.14062881469727 9.604591369628906 18.58632278442383 22.32895088195801 21.9857234954834 C 35.05331039428711 25.38512229919434 50.46532440185547 31.73821640014648 50.46532440185547 31.73821640014648 L 4.271240413800115e-06 58.89577484130859 Z"/></g><path class="f" d="M111.532-64.738,61-37.58s2.115,2.766,2.114,5.011S61-28.6,61-28.6L60.5-13.845A44.994,44.994,0,0,1,62.12-5.56C62.186-2.622,63-.872,62.12.9A13.361,13.361,0,0,0,61,5.21V28.577c5.589-.3,26.906-16.372,26.906-16.372L111.532-2.171s2.286-5.12,2.286-9.52a17.121,17.121,0,0,0-2.286-8.081V-41.2s2.738-1.89,2.738-7.774S111.532-64.738,111.532-64.738Z" transform="translate(-7.269 82.827)"/><path class="g" d="M3.725-13,28.236-.809V13.27L4.262-.007,3.725-1.243l.537-1-.537-2.05.537-1.246L3.725-7.073l.709-1.138L3.725-10.06l.709-.76Z" transform="translate(25.495 55.04)"/><path class="g" d="M3.072-15.323l51.19,37.345.016,14.063L3.71-2.959Z" transform="translate(-0.547 64.612)"/><path class="h" d="M.016-.25.469-.484s6.26,15.409,6.252,31.467S.438,63.75.438,63.75l-.484.266s5.924-16.966,5.94-33.033S.016-.25.016-.25Z" transform="translate(80.606 31.04)"/><path class="g" d="M3.14-14.978,53.749-52.634v14.078L3.14-.957Z" transform="translate(50.591 101.612)"/><path class="g" d="M3.725-13.84l50.6-12.714v12.118L3.725.287Z" transform="translate(50.006 68.04)"/><path class="f" d="M47.168,251.657a24.618,24.618,0,0,1-4.855,4.584c-3.432,2.6-11.983,6.8-12.375,6.607S44.357,252.3,44.357,252.3Z" transform="translate(141.685 -211.829) rotate(19)"/><path class="f" d="M55.153,246.6s-8.009,6.941-11.44,9.539-10.147,4.98-10.539,4.784S44.357,252.3,44.357,252.3Z" transform="translate(107.358 -203.304) rotate(19)"/><path class="i" d="M-16.556,242.172c-.137-.1-6.437-2.724-8.119-3.977s-3.977-5.3-3.977-5.3Z" transform="translate(31.473 -183.96)"/><path class="j" d="M-1.1,11.942,49.028-14.931l.316.1L-.8,12.047Z" transform="translate(54.473 33.04)"/><path class="j" d="M2.266.438l.328.078-.437.25-.3-.078Z" transform="translate(78.473 30.04)"/><path class="g" d="M0,0,24.026-22.632,22.7-9.137,0,12.772l.646-1.665L0,10.749.835,9.243,0,8.78.721,7.158,0,6.758l.855-1.8L0,4.482.98,2.715,0,2.172.921.51Z" transform="matrix(-0.485, -0.875, 0.875, -0.485, 55.322, 27.205)"/><path class="f" d="M34.4,261.561s-7.4,7.066-10,8.617a2.865,2.865,0,0,1-2.179.33l4-3.016Z" transform="translate(31.473 -183.96)"/></g></svg>