<svg xmlns="http://www.w3.org/2000/svg" xmlns:xlink="http://www.w3.org/1999/xlink" width="222" height="110" viewBox="0 0 222 110"><defs><style>.a{fill:none;}.b{isolation:isolate;clip-path:url(#a);}.c{fill:#ae8448;opacity:0.6;}.d{fill:#dcdcdc;}</style><clipPath id="a"><rect class="a" x="9" y="21" width="222" height="110"/></clipPath></defs><g class="b" transform="translate(-9 -21)"><g transform="translate(83.568 22.967)"><path class="c" d="M0,0,45.668.109l.668.973-.668,1.376.668,1.217-.573,1.267.573,1.277-.573,1.285.573,1.2L45.764,9.8l.573,1.31-.573,1.136.573,1.143H0l.577-1.029L0,11.265l.577-.878L0,9.2l.577-.889L0,7.083l.65-1.23L0,4.7.8,3.5,0,2.276l.8-1.12Z" transform="translate(18.91 0) rotate(15)"/><path class="c" d="M0,0,33.49.109l.49.973-.49,1.376.49,1.217-.42,1.267.42,1.277-.42,1.285.42,1.2L33.56,9.8l.42,1.31-.42,1.136.42,1.143H0l.423-1.029L0,11.265l.423-.878L0,9.2l.423-.889L0,7.083l.477-1.23L0,4.7.585,3.5,0,2.276l.585-1.12Z" transform="translate(3.089 25.057) rotate(-45)"/><path class="c" d="M0,0,58.862.109l.861.973-.861,1.376.861,1.217-.738,1.267.738,1.277-.738,1.285.738,1.2L58.985,9.8l.738,1.31-.738,1.136.738,1.143H0l.744-1.029L0,11.265l.744-.878L0,9.2l.744-.889L0,7.083l.838-1.23L0,4.7,1.028,3.5,0,2.276l1.028-1.12Z" transform="translate(3.126 87.114) rotate(-93)"/><path class="c" d="M0,0,81.189.109l1.188.973L81.189,2.459l1.188,1.217L81.358,4.944l1.018,1.277L81.358,7.505l1.018,1.2L81.358,9.8l1.018,1.31-1.018,1.136,1.018,1.143H0l1.026-1.029L0,11.265l1.026-.878L0,9.2l1.026-.889L0,7.083l1.156-1.23L0,4.7,1.418,3.5,0,2.276l1.418-1.12Z" transform="translate(55.796 93.261) rotate(-93)"/><path class="c" d="M0,0,57.847.109l.846.973-.846,1.376.846,1.217-.725,1.267.725,1.277-.725,1.285.725,1.2L57.968,9.8l.725,1.31-.725,1.136.725,1.143H0l.731-1.029L0,11.265l.731-.878L0,9.2l.731-.889L0,7.083l.824-1.23L0,4.7,1.01,3.5,0,2.276l1.01-1.12Z" transform="translate(21.624 96.662) rotate(-34)"/><path class="c" d="M0,0,28.416.109l.416.973-.416,1.376.416,1.217-.356,1.267.356,1.277-.356,1.285.356,1.2L28.475,9.8l.356,1.31-.356,1.136.356,1.143H0l.359-1.029L0,11.265l.359-.878L0,9.2l.359-.889L0,7.083l.4-1.23L0,4.7.5,3.5,0,2.276l.5-1.12Z" transform="translate(10.812 75.168) rotate(30)"/></g><path class="d" d="M12.976-45.981l4.661-45.729H64.626V-80.94h-37.1L24.754-55.934A29.6,29.6,0,0,1,40.061-59.9q12.535,0,19.9,8.283t7.37,22.392q0,14.172-7.653,22.329T38.3,1.26q-12.157,0-19.841-6.74T9.7-24.125H20.723q1.071,7.874,5.606,11.873t11.968,4q8.125,0,12.755-5.543T55.682-29.1q0-9.2-5.008-14.771T37.352-49.446q-7.622,0-11.968,3.338L22.3-43.588Z" transform="translate(0 123)"/><path class="d" d="M65.13-39.116q0,20.471-6.992,30.423T36.281,1.26Q21.6,1.26,14.55-8.472T7.244-37.541V-53.1q0-20.219,6.992-30.045t21.92-9.826q14.8,0,21.794,9.48T65.13-54.233ZM53.477-55.052q0-14.8-4.157-21.573T36.155-83.4q-8.944,0-13.039,6.74T18.9-55.934v18.645q0,14.865,4.315,21.951t13.07,7.086q8.629,0,12.818-6.677t4.378-21.038Z" transform="translate(166 123)"/></g></svg>