<svg xmlns="http://www.w3.org/2000/svg" xmlns:xlink="http://www.w3.org/1999/xlink" width="344" height="58.097" viewBox="0 0 344 58.097">
  <defs>
    <clipPath id="clip-path">
      <rect id="사각형_721" data-name="사각형 721" width="344" height="58.097" fill="none"/>
    </clipPath>
  </defs>
  <g id="National_Geographic_Logo" data-name="National Geographic_Logo" transform="translate(0 0)">
    <path id="패스_29527" data-name="패스 29527" d="M179.127,16.768V38.713H190.42V35.765H182.9v-19Z" transform="translate(153.58 14.376)" fill="#161615"/>
    <path id="패스_29528" data-name="패스 29528" d="M181.813,19.716h-6.36v6.016h6.232v2.946h-6.232v7.088h7.5V38.71H171.638V16.769h10.175Z" transform="translate(147.159 14.377)" fill="#161615"/>
    <g id="그룹_1503" data-name="그룹 1503" transform="translate(0 0)">
      <g id="그룹_1502" data-name="그룹 1502" clip-path="url(#clip-path)">
        <path id="패스_29529" data-name="패스 29529" d="M166.833,19.718h1.685a3.208,3.208,0,0,1,3.529,3.54c0,2.942-1.807,4.263-3.622,4.359-.383.03-1.276.063-1.592.091ZM176.5,38.711l-4.482-9.084a7.38,7.38,0,0,0,3.847-6.531c0-4.257-2.639-6.328-6.9-6.328h-5.947V38.711h3.817V30.436h1.718l3.59,8.275Z" transform="translate(139.767 14.376)" fill="#161615"/>
        <path id="패스_29530" data-name="패스 29530" d="M133.666,30.03c.892-2.885,1.781-5.548,2.574-8.936h.067c.886,3.388,1.677,6.051,2.509,8.936Zm1.462-13.262-7.693,21.943h3.306l1.941-5.984h6.7l1.757,5.984H145.4l-7.09-21.943Z" transform="translate(109.26 14.376)" fill="#161615"/>
        <path id="패스_29531" data-name="패스 29531" d="M158.335,30.03c.893-2.885,1.783-5.548,2.578-8.936h.061c.89,3.388,1.683,6.051,2.511,8.936ZM159.8,16.768l-7.7,21.943h3.306l1.939-5.984h6.705l1.753,5.984h4.259l-7.09-21.943Z" transform="translate(130.412 14.376)" fill="#161615"/>
        <path id="패스_29532" data-name="패스 29532" d="M143.935,16.768H137.99V38.709H141.8V30.436h1.714a7.219,7.219,0,0,0,7.311-7.342c0-4.257-2.636-6.326-6.893-6.326m-.544,10.847c-.388.026-1.315.056-1.588.087V19.716h1.714a3.205,3.205,0,0,1,3.5,3.546c0,2.938-1.818,4.257-3.631,4.354" transform="translate(118.31 14.376)" fill="#161615"/>
        <path id="패스_29533" data-name="패스 29533" d="M151.974,16.768h-5.945V38.709h3.815V30.436h1.713a7.219,7.219,0,0,0,7.311-7.342c0-4.257-2.636-6.326-6.893-6.326m-.544,10.847c-.388.026-1.315.056-1.586.087V19.716h1.713a3.2,3.2,0,0,1,3.5,3.546c0,2.938-1.817,4.257-3.629,4.354" transform="translate(125.202 14.376)" fill="#161615"/>
        <path id="패스_29534" data-name="패스 29534" d="M43.266,23.565H40.738c-3.308-4.747-6.586-9.46-9.874-14.794h-.03V23.565H28.047V2.941h2.53c3.312,4.716,6.6,9.4,9.844,14.7h.058V2.941h2.788Z" transform="translate(24.047 2.521)" fill="#161615"/>
        <path id="패스_29535" data-name="패스 29535" d="M42.434,15.4c.815-2.706,1.627-5.21,2.351-8.4h.059c.812,3.185,1.542,5.689,2.3,8.4ZM43.769,2.941,36.743,23.565h3.018l1.77-5.626h6.129l1.6,5.626h3.895L46.676,2.941Z" transform="translate(31.503 2.521)" fill="#161615"/>
        <path id="패스_29536" data-name="패스 29536" d="M49.809,23.565V5.708H44.468V2.941H58.639V5.708H53.3V23.565Z" transform="translate(38.126 2.521)" fill="#161615"/>
        <rect id="사각형_719" data-name="사각형 719" width="3.457" height="20.624" transform="translate(97.899 5.461)" fill="#161615"/>
        <path id="패스_29537" data-name="패스 29537" d="M64.337,21.136c-3.629,0-4.905-4.07-4.905-8.02,0-3.795,1.454-7.42,4.905-7.42s4.909,3.626,4.909,7.42c0,3.951-1.276,8.02-4.909,8.02m0,2.946c5.31,0,8.626-4.805,8.626-10.966,0-5.769-3.655-10.368-8.626-10.368s-8.624,4.6-8.624,10.368c0,6.161,3.31,10.966,8.624,10.966" transform="translate(47.767 2.355)" fill="#161615"/>
        <path id="패스_29538" data-name="패스 29538" d="M81.359,23.565H78.837c-3.308-4.747-6.592-9.46-9.878-14.794h-.028V23.565H66.14V2.941h2.528c3.317,4.716,6.6,9.4,9.85,14.7h.056V2.941h2.786Z" transform="translate(56.707 2.521)" fill="#161615"/>
        <path id="패스_29539" data-name="패스 29539" d="M80.525,15.4c.817-2.706,1.633-5.21,2.359-8.4h.058c.81,3.185,1.536,5.689,2.3,8.4ZM81.864,2.941,74.838,23.565h3.02l1.77-5.626h6.128l1.6,5.626h3.893L84.771,2.941Z" transform="translate(64.165 2.521)" fill="#161615"/>
        <path id="패스_29540" data-name="패스 29540" d="M84.22,2.941h3.453V20.792h6.883v2.773H84.22Z" transform="translate(72.209 2.52)" fill="#161615"/>
        <path id="패스_29541" data-name="패스 29541" d="M42.03,28.48v8.514a15.91,15.91,0,0,1-5.791,1.272c-5.994,0-9.779-4.72-9.779-10.788,0-5.626,3.785-10.546,9.9-10.546A8.593,8.593,0,0,1,41.3,18.525l-1.131,2.444a7.5,7.5,0,0,0-3.726-1.09c-3.72,0-6.258,2.976-6.258,7.662,0,4.889,2.909,7.777,5.914,7.777a5.035,5.035,0,0,0,2.441-.5V28.48Z" transform="translate(22.686 14.517)" fill="#161615"/>
        <path id="패스_29542" data-name="패스 29542" d="M45.863,19.893H40.042v5.656h5.7v2.769h-5.7v6.659h6.867v2.769H36.55V17.121h9.313Z" transform="translate(31.337 14.679)" fill="#161615"/>
        <path id="패스_29543" data-name="패스 29543" d="M51.349,35.318c-3.635,0-4.913-4.066-4.913-8.02,0-3.795,1.452-7.418,4.913-7.418S56.271,23.5,56.271,27.3c0,3.954-1.283,8.02-4.922,8.02m0,2.948C56.677,38.266,60,33.459,60,27.3c0-5.765-3.67-10.366-8.648-10.366s-8.641,4.6-8.641,10.366c0,6.161,3.314,10.968,8.641,10.968" transform="translate(36.617 14.516)" fill="#161615"/>
        <path id="패스_29544" data-name="패스 29544" d="M68.231,28.48v8.514a15.937,15.937,0,0,1-5.8,1.272c-6,0-9.779-4.72-9.779-10.788,0-5.626,3.78-10.546,9.9-10.546A8.59,8.59,0,0,1,67.5,18.525l-1.135,2.444a7.5,7.5,0,0,0-3.728-1.09c-3.718,0-6.252,2.976-6.252,7.662,0,4.889,2.909,7.777,5.9,7.777a5.048,5.048,0,0,0,2.446-.5V28.48Z" transform="translate(45.147 14.517)" fill="#161615"/>
        <path id="패스_29545" data-name="패스 29545" d="M66.257,19.892H67.8a2.978,2.978,0,0,1,3.228,3.33c0,2.764-1.657,4-3.317,4.094-.349.03-1.163.059-1.454.087ZM75.1,37.745,71,29.207a6.969,6.969,0,0,0,3.522-6.139c0-4-2.415-5.947-6.313-5.947H62.763V37.745h3.494V29.969H67.83l3.284,7.777Z" transform="translate(53.812 14.678)" fill="#161615"/>
        <path id="패스_29546" data-name="패스 29546" d="M75.139,29.587c.819-2.712,1.634-5.216,2.359-8.4h.059c.814,3.184,1.538,5.687,2.3,8.4ZM76.48,17.122,69.439,37.748h3.026l1.774-5.626h6.137l1.607,5.626h3.9l-6.49-20.626Z" transform="translate(59.536 14.679)" fill="#161615"/>
        <path id="패스_29547" data-name="패스 29547" d="M84.329,17.122H78.887V37.746h3.492V29.97h1.568a6.7,6.7,0,0,0,6.692-6.9c0-4-2.413-5.947-6.31-5.947m-.5,10.2c-.355.026-1.2.052-1.452.082V19.893h1.568c2.041,0,3.208,1.209,3.208,3.33,0,2.764-1.664,4-3.323,4.094" transform="translate(67.636 14.679)" fill="#161615"/>
        <path id="패스_29548" data-name="패스 29548" d="M100.486,37.746H96.992V27.82H89.739v9.926h-3.46V17.121h3.46v7.927h7.253v-7.86h3.494Z" transform="translate(73.974 14.679)" fill="#161615"/>
        <rect id="사각형_720" data-name="사각형 720" width="3.462" height="20.624" transform="translate(177.805 31.8)" fill="#161615"/>
        <path id="패스_29549" data-name="패스 29549" d="M112.247,21.028a7.291,7.291,0,0,0-3.574-1.148c-3.557,0-6.139,2.976-6.139,7.662,0,4.89,2.846,7.777,6.219,7.777a6.55,6.55,0,0,0,3.494-1.031l.964,2.559a8.737,8.737,0,0,1-4.6,1.421c-6,0-9.787-4.72-9.787-10.788,0-5.626,3.759-10.548,9.846-10.548a8.494,8.494,0,0,1,4.682,1.594Z" transform="translate(84.732 14.516)" fill="#161615"/>
        <path id="패스_29550" data-name="패스 29550" d="M109.621,22.19h-.832V17.885h-1.272V17.22h3.377v.665h-1.272Z" transform="translate(92.183 14.763)" fill="#161615"/>
        <path id="패스_29551" data-name="패스 29551" d="M114.291,17.219v4.97h-.825v-3.88h-.015q-.418,1.29-1.389,3.88h-.436c-.321-.9-.546-1.525-.667-1.887-.253-.715-.468-1.38-.659-1.993h-.006v3.88h-.665v-4.97h1.018c.726,2.08,1.148,3.345,1.267,3.806h.013q.184-.649,1.4-3.806Z" transform="translate(93.994 14.762)" fill="#161615"/>
        <path id="패스_29552" data-name="패스 29552" d="M0,0H39.939V58.1H0ZM34.159,6H5.756V52.1h28.4Z" transform="translate(0 -0.001)" fill="#ffd600"/>
      </g>
    </g>
  </g>
</svg>
