<svg id="마크곤잘레스" xmlns="http://www.w3.org/2000/svg" xmlns:xlink="http://www.w3.org/1999/xlink" width="104" height="24" viewBox="0 0 104 24">
  <defs>
    <clipPath id="clip-path">
      <rect id="사각형_759" data-name="사각형 759" width="104" height="24" fill="none"/>
    </clipPath>
  </defs>
  <g id="그룹_1317" data-name="그룹 1317" clip-path="url(#clip-path)">
    <path id="패스_29185" data-name="패스 29185" d="M827.236,93.034a5.561,5.561,0,0,1-1.334-.151c-.038-.042.088-.406.113-1.046.033-.858-.132-1.691-.1-2.539,0-.05-.007-.19,0-.24a2.017,2.017,0,0,1,.033-.231c.065-.469-.124-.56-.376-.629-.355-.1-.7-.116-.759.239a4.442,4.442,0,0,1-.481,1.381,11.458,11.458,0,0,1-1.6,2.464,2.045,2.045,0,0,1-1.619,1.162c-.311.007-.853-.362-.84-.55.012-.163.166-.27.332-.449s.388-.442.592-.7a3.316,3.316,0,0,0,.7-1.759c.019-.148.025-.245.037-.395a.981.981,0,0,0,.035-.248.736.736,0,0,0-.423-.635,1.93,1.93,0,0,0-1.267.221A2.794,2.794,0,0,0,819.3,90.6a1.428,1.428,0,0,0-.033.149,7.744,7.744,0,0,0,0,1.611c.059.713-.577.924-1.036,1.168-.335.178-.653-.06-.865-.281-.4-.417-.077-.743.058-1.139.288-.848.7-1.759.983-2.607.4-1.175.363-1.315.589-2,.059-.179.143-.46.22-.659.111-.288.249-.606.358-.937a9.227,9.227,0,0,0,.373-1.3,3.744,3.744,0,0,0,.065-.9c-.024-.507-.953-.743-1.206-.585a1.674,1.674,0,0,0-.591.478,11.809,11.809,0,0,0-2.29,7.2,6.051,6.051,0,0,0,.06.727c.016.106.081.3.107.4a.6.6,0,0,1-.06.548.508.508,0,0,1-.576.277c-.653-.218-.85-.76-.984-1.62-.065-.42-.1-1.054-.2-1.468a1.378,1.378,0,0,0-1.177-1.124,1.169,1.169,0,0,0-1.032.448s-.069.358-.1.43a3.13,3.13,0,0,1-.827,1.247c-.219.187-.456.371-.686.546-.024.019-.051.037-.079.055-.111.12-.218.243-.33.361a.818.818,0,0,1-.59.2,4.688,4.688,0,0,1-.653-.292.67.67,0,0,0-.377,0c-.243.067-.64.422-.88.257a9.811,9.811,0,0,1,.514-2.075c.055-.191.136-.408.17-.553.173-.721-.179-.956-1.038-.8a2.066,2.066,0,0,0-.9.446,2.41,2.41,0,0,0-.636,1.01c-.349.778-.592,1.6-.965,2.367a4.78,4.78,0,0,1-.868,1.419c-.118.07-.284.126-.443-.126a2.957,2.957,0,0,1-.269-1.366c.043-1.071.214-2.138.255-3.21a.229.229,0,0,0-.112-.205,1.045,1.045,0,0,0-.8-.155.255.255,0,0,0-.2.191,2.976,2.976,0,0,1-.064.293c-.029.084-.1.174-.129.259-.264.787-.487,1.588-.743,2.379-.148.459-.166.851-.333,1.3a1.012,1.012,0,0,1-.254.372c-.084.072-.175.1-.268-.051a1.205,1.205,0,0,1-.175-.605,5.4,5.4,0,0,1-.014-1.193c.086-.942.087-1.564.207-2.5.021-.164.343-.642.186-.892a.488.488,0,0,0-.422-.217.746.746,0,0,0-.441.189,1.548,1.548,0,0,0-.344.5c-.058.119-.14.23-.168.316-.043.132-.058.26-.1.429-.2.831-.51,1.848-.634,2.457a2.234,2.234,0,0,1-.251.789c-.09.128-.382.542-.579.342-.175-.178,0,0,.194-.767a8.753,8.753,0,0,0,.168-1.3,1.785,1.785,0,0,0-.891-1.914,2.708,2.708,0,0,0-2.416.841,3.812,3.812,0,0,0-.278,4.038c.266.549.827,1.032,1.405.8a5.124,5.124,0,0,0,.755-.5,1.267,1.267,0,0,1,.315-.2c.078-.028.385-.142.463-.164a.756.756,0,0,1,.5.016c.234.076.191.134.5.13a.841.841,0,0,0,.6-.512c.294-.8.429-.694.462-.5a7.879,7.879,0,0,0,.332,1.217c.135.371.181.589.816.568a.954.954,0,0,0,.915-.6,6.148,6.148,0,0,0,.366-1.22c.14-.465.237-.342.313,0,.055.245.213.973.279,1.136.4,1.006,1.45,1,2.1.154a13.042,13.042,0,0,0,.891-1.347c.2-.342.931-2.513,1.382-3.152a.552.552,0,0,1,.089-.118.115.115,0,0,1,.106-.013c.136.029.053.132.022.264-.068.289-.728,2.454-.8,2.733a.765.765,0,0,0,.016.509.657.657,0,0,0,.742.274c.331-.094.634-.533.8-.65.187-.13.411-.281.6-.209a1.834,1.834,0,0,1,.281.151.175.175,0,0,1,.057.246,8.943,8.943,0,0,1-.82,1.136,2.361,2.361,0,0,0-.44,2.85,7.415,7.415,0,0,0,.555,1.064c.1.154.243.294.334.458.358.639.8.205,1.034-.133a3.65,3.65,0,0,0,.428-.778c.012-.03.091-.318.093-.353.069-1.187-.093-1.721-.058-2.909a2.362,2.362,0,0,1,.845-2.136.307.307,0,0,1,.469.14c.07.176.07.444.156.7a1.148,1.148,0,0,0,.858.689,1.033,1.033,0,0,0,.87-.616c.314-.446.308-1.036.644-.944.132.036.236.058.4.359.14.248.185.494.286.694a1.451,1.451,0,0,0,.729.69,1.046,1.046,0,0,0,.43.073.431.431,0,0,0,.253-.087c.35-.216.521-.454.725-.226a5.958,5.958,0,0,0,.619.832,1.065,1.065,0,0,0,1.391.025c.236-.153.512-.48.811-.667a.454.454,0,0,1,.517.061c.46.443.828.944,1.607.752a1.11,1.11,0,0,0,.382-.207,2.831,2.831,0,0,0,.52-.47,3.528,3.528,0,0,1,.724-.7.217.217,0,0,1,.312.119c.522,1.194.723,1.513.9,1.917a4.363,4.363,0,0,0,.708,1.42.66.66,0,0,0,1.126-.174,2.128,2.128,0,0,0,.032-1.154c-.051-.487-.122-.8-.182-1.3,0,0,.375.039.58.045.173,0,.352-.019.437-.021.133,0,.148.011.209.01.125,0,.322-.01.381-.013l.086,0a3.284,3.284,0,0,0,.515.042c.282,0,.438-.137.459-.463a.445.445,0,0,0-.312-.455,1.84,1.84,0,0,0-.512.019,5.382,5.382,0,0,1-.672-.067m-31.562.554c-.482-.166-.612-.835-.568-1.245.037-.346-.006-.706.051-1.048.02-.117-.017-.569.058-.6.008,0,.2-.1.187.121a3.214,3.214,0,0,0,.2,1.627c.124.217.363.368.445.6.072.206-.016.664-.369.542m1.509-2.7c-.06.2-.105.4-.164.6-.049.17-.012.49-.189.518s-.4-.438-.383-.619a1,1,0,0,1,.272-.545c.084-.094.183-.034.322-.276s-.237-.672.01-.7c.269-.027.217.725.131,1.015m11.9,4.949c-.021.377-.1.673-.108,1.127-.012.545-.163.539-.26.17-.01-.04-.045-.059-.086-.127s-.077-.106-.106-.156a1.634,1.634,0,0,1-.2-.442,1.487,1.487,0,0,1-.029-1.024,2.5,2.5,0,0,1,.531-.932c.078-.091.238-.062.25.173.025.471.016,1.131.011,1.212m3.777-4.7a3.62,3.62,0,0,1-.146.689c-.057.161-.112.44-.338.438-.429,0-.365-.7-.15-1.146.084-.176.226-.085.393-.176.3-.162.294-.17.241.194m4.066,0a6.948,6.948,0,0,1-.072-1.808,9.62,9.62,0,0,1,.349-1.562c.073-.22.19-.55.28-.763a9.989,9.989,0,0,1,.786-1.686c.052-.074.421-.7.515-.652a4.847,4.847,0,0,1-.147,1.132,10.914,10.914,0,0,1-.536,1.831c-.091.252-.229.943-.348,1.184a13,13,0,0,1-.828,2.324m3.344-.559c.064-.187.284-.934.6-.841.18.053.085.37.035.5-.094.237-.247.532-.364.762-.1.2-.271.545-.343.527-.177-.043.073-.945.073-.945m4.424,2.154c-.194-.083-.642-.092-.808-.216-.225-.169.1-.41.312-.737.139-.217.224-.333.327-.485.21-.31.277-.646.416-.648.166,0,.175,1.239.168,1.394a1.862,1.862,0,0,1-.114.523.269.269,0,0,1-.3.169m.628,2.89c-.156.055-.706-1.733-.619-1.733a1.075,1.075,0,0,1,.405.086c.1.034.215.065.232.253a6.362,6.362,0,0,1,.053.7s.023.662-.071.695" transform="translate(-726.377 -76.457)" fill="#1a1311"/>
    <path id="패스_29186" data-name="패스 29186" d="M478.149,114.545c-.289-.226-.569-.465-.836-.715-.947-.884-1.028-1.452-.3-2.519a9.854,9.854,0,0,1,.816-1.033,3.628,3.628,0,0,1,.282-.271c.1-.093.223-.111.352-.287a.387.387,0,0,0-.161-.562c-.133-.078-.176-.067-.439.04a.785.785,0,0,0-.547.406,11.508,11.508,0,0,1-1.471,1.729.123.123,0,0,1-.133.029.243.243,0,0,1-.144-.28c.321-1.265.822-2.96,1.08-4.156a3.224,3.224,0,0,0,.032-.507c0-.023.013-.123-.046-.139a1.984,1.984,0,0,0-.2-.064,2.071,2.071,0,0,0-.214-.044c-.086-.014-.2.095-.217.118a.973.973,0,0,0-.132.257c-.43,1.748-.8,3.369-1.171,5.128-.082.386-.162,1.742-.217,2.331a.131.131,0,0,1-.22.074,2.975,2.975,0,0,1-.416-.977,4.282,4.282,0,0,1-.108-.758c-.028-.174-.2-.38-.216-.552a4.356,4.356,0,0,1,0-.47c.011-.093.018-.184.041-.3a.641.641,0,0,0-.058-.43c-.112-.208-.236-.2-.709-.29-.184-.035-.291-.057-.385.014a1.071,1.071,0,0,0-.292.557c-.312.962-.674,1.91-1.048,2.939a.144.144,0,0,1-.206.078c-.915-.5-.7-1.39-.718-2.112-.012-.59-.185-.731-.484-.825-.129-.041-.414-.236-.583.1-.1.2.017,1.013-.192.844a.566.566,0,0,1-.163-.207c-.564-1.522-1.828-.654-2.1.777-.091.484-.013,1-.128,1.474a4.093,4.093,0,0,1-.6,1.423c-.384.534-.932.41-1.129-.211a2.615,2.615,0,0,1-.064-.736A16.1,16.1,0,0,1,466.364,108a9.089,9.089,0,0,0,.433-1.243.179.179,0,0,0-.109-.2l-.412-.184a.212.212,0,0,0-.235.007,1.823,1.823,0,0,0-.338.385c-.112.183-.182.379-.3.559-.35.542-.736,1.078-1.087,1.62q-.181.28-.364.56a.079.079,0,0,1-.018.028c-.434.663-.846,1.288-1.3,2.025-.019.032-.129.251-.22.419-.051.093-.2.492-.363.378-.067-.047-.06-.466-.06-.589s-.014-.262-.02-.417c-.145-1.132-.469-2.3-.674-3.219-.1-.426-.007-.585-.239-.708a1.034,1.034,0,0,0-.507-.068,1.781,1.781,0,0,0-.289.047c-.148.051-.152.263-.131.409a15.256,15.256,0,0,1,.064,4.082,2.953,2.953,0,0,1-.271.75s-.274-.663-.287-.7a10.21,10.21,0,0,0-2.111-2.8c-.246-.256-.457-.5-.646-.7a1.676,1.676,0,0,0-.64-.442c-.176-.066-.24-.044-.342.053s-.1.209-.038.365c.046.111.144.143.222.223.682.707,1.352,1.433,1.993,2.171a3.454,3.454,0,0,1,.609,3.966,2.642,2.642,0,0,0-.318.785.83.83,0,0,0,.115.427.41.41,0,0,0,.671.087,9.35,9.35,0,0,0,1.6-3.25c.006-.017.034-.086.04-.1.091-.229.1-.3.147-.428.035-.088.165-.6.165-.6a32.965,32.965,0,0,0,.27,3.554.446.446,0,0,0,.845.038c.1-.294.166-.5.242-.8a24.012,24.012,0,0,1,1.511-3.393c.179-.338.647-1.013.647-1.013s-.185.559-.295,1.021c-.04.168-.727,2.99-.323,4.338a1.631,1.631,0,0,0,1.257,1.354c.8.154,1.14-.391,1.522-.876.037-.047.061-.156.192-.082.945.533,1.71.414,2.251-1.023a5.72,5.72,0,0,0,.185-.809c.038-.174.295.014.362.068a9.161,9.161,0,0,1,.856.893.494.494,0,0,0,.567.1c.82-.417.924-1.166,1.135-1.927.08-.289.184-.706.3-.731s.177.094.209.228c.02.081.031.165.047.224a7.031,7.031,0,0,0,.379,1.03c.632,1.1.827,1.3,1.284,1.553a.431.431,0,0,0,.461-.093,1.457,1.457,0,0,0,.236-.19c.341-.446.053-1.486.166-2.087.019-.1.093-.119.165-.045.81.835,1.665,2.012,2.448,2.857.1.111.218.146.36-.026a4.593,4.593,0,0,0,.275-.377.221.221,0,0,0,.05-.228,2.123,2.123,0,0,0-.556-.718m-10.763-1.32a1.558,1.558,0,0,1,.086-.608.945.945,0,0,1,.281-.454c.06-.041.173-.008.308.093a.357.357,0,0,1,.122.425,1.856,1.856,0,0,1-.367.657c-.22.282-.4.356-.429-.113m1.425-.2a4.161,4.161,0,0,1-.929,1.917.2.2,0,0,1-.345-.16,3.441,3.441,0,0,1,1-2.181c.13-.11.366.166.277.424" transform="translate(-416.972 -97.719)" fill="#1a1311"/>
    <path id="패스_29187" data-name="패스 29187" d="M735.538,102.941c.349-.4.714-.977,1.231-1.029.385-.039.762.487,1.141.68l.03.014a.5.5,0,0,0,.694-.372c.008-.111-.041-.129-.073-.19-.064-.125-.047-.237-.128-.348a1.913,1.913,0,0,0-2.7-.3,8.476,8.476,0,0,0-2.817,7.1,2.107,2.107,0,0,0,1.693,1.914,6.048,6.048,0,0,1,.63.161c.246.082.51.228.517.489a4.081,4.081,0,0,1,0,.537,1.346,1.346,0,0,0,.073.545,1.056,1.056,0,0,0,.4.457.49.49,0,0,0,.572,0,1.588,1.588,0,0,0,.638-1.039,3.051,3.051,0,0,0,.077-.326.938.938,0,0,1,.034-.188.3.3,0,0,0,.011-.187c-.032-.1-.127-.152-.211-.09-.2.153-.31.446-.6.565-.124.05-.236-.051-.35-.174a.872.872,0,0,1-.007-1.033c1.273-1.122,1.325-2.623,1.285-4.028a1.959,1.959,0,0,0-1.418-1.929.435.435,0,0,0-.533.2,2.338,2.338,0,0,0-.306.806c-.081.839-.035,1.687-.064,2.531-.018.518.079,1.034.044,1.582a.407.407,0,0,1-.583.319,1.757,1.757,0,0,1-1.1-1.972,7.832,7.832,0,0,1,1.825-4.692m.73,3.579a6.748,6.748,0,0,1,.045-.741c.043-.322.093-.306.187-.287.235.046.438,1.612.131,2.416-.22.577-.354.548-.354.548-.037,0-.042-.2-.05-.37-.025-.6.04-1.565.04-1.565" transform="translate(-670.421 -92.924)" fill="#1a1311"/>
    <path id="패스_29188" data-name="패스 29188" d="M1185.393,119.433c-.018-.044-.031-.081-.042-.116a1.012,1.012,0,0,0-.065-.16,2.009,2.009,0,0,0-.525-.553.22.22,0,0,0-.048-.028l-.3-.13a1.313,1.313,0,0,0-.785-.08,1.688,1.688,0,0,0-1.029.706,4.207,4.207,0,0,0-.322.837,1.794,1.794,0,0,0,0,.354,1.316,1.316,0,0,0,.086.326,1.248,1.248,0,0,0,.432.509c.058.038.1.071.139.1a1.319,1.319,0,0,0,.346.2,1.888,1.888,0,0,0,.689.125,1.021,1.021,0,0,0,.131-.007,1.41,1.41,0,0,0,.329-.083.949.949,0,0,1,.117-.037,1.126,1.126,0,0,0,.257-.128,1.3,1.3,0,0,0,.326-.3.992.992,0,0,0,.171-.263c.014-.03.031-.065.055-.111a2.091,2.091,0,0,0,.157-.524,1.3,1.3,0,0,0-.113-.646m-.552-.159.008.01a.3.3,0,0,1,.058.117,2,2,0,0,0,.072.22.887.887,0,0,1-.254,1.09,1.72,1.72,0,0,1-.41.287.618.618,0,0,1-.229.055,1.009,1.009,0,0,1-.343,0,1.346,1.346,0,0,1-.488-.2l-.023-.018c-.191-.142-.428-.319-.455-.472a1.407,1.407,0,0,1,.007-.62,1.475,1.475,0,0,1,.116-.286c.031-.055.054-.1.074-.139a.858.858,0,0,1,.193-.27,1.369,1.369,0,0,1,.491-.291.942.942,0,0,1,.214-.024,1.151,1.151,0,0,1,.647.211,1.664,1.664,0,0,1,.319.327" transform="translate(-1081.517 -108.92)" fill="#1a1311"/>
    <path id="패스_29189" data-name="패스 29189" d="M1193.435,127.377h0a.69.69,0,0,0-.382-.065h-.015a.642.642,0,0,0-.464.191,1.047,1.047,0,0,0-.178.239,1.249,1.249,0,0,0-.081.908.617.617,0,0,0,.453.3,2.151,2.151,0,0,0,.423.051.532.532,0,0,0,.077,0,.182.182,0,0,0,.141-.084.238.238,0,0,0,0-.233l-.013-.025-.025-.015a.378.378,0,0,0-.205-.045.729.729,0,0,1-.137-.012.925.925,0,0,0-.107-.013c-.09-.007-.131-.011-.212-.142a.813.813,0,0,1,.141-.631.182.182,0,0,1,.126-.07.438.438,0,0,1,.305.047l.018.014a.413.413,0,0,0,.292.117.206.206,0,0,0,.142-.091l.011-.022c.058-.162-.167-.332-.307-.419" transform="translate(-1090.657 -117.176)" fill="#1a1311"/>
    <path id="패스_29190" data-name="패스 29190" d="M39.9,26.128a.568.568,0,0,0-.2.143,8.974,8.974,0,0,1-2.885,1.715c-.061.1-.193.05-.284.056a.04.04,0,0,0-.016,0,12.09,12.09,0,0,1-5.788.672l-.013,0a6.251,6.251,0,0,0-1.478-.17.039.039,0,0,1-.017-.007c-.282-.2-.713-.037-.988-.261a.045.045,0,0,0-.032-.01c-.4.033-.647-.257-.988-.381a.048.048,0,0,1-.015-.009c-.677-.587.026-1.3.125-1.927a.148.148,0,0,1,.014-.044c.08-.16.2-.4.31-.576a.328.328,0,0,0,.046-.169V25.1a.036.036,0,0,1,0-.009c.292-1.062.66-2.088.914-3.152a.859.859,0,0,0,.024-.227c-.012-.377.094-.8-.108-1.11a.122.122,0,0,1,.023-.162l.043-.079c-.043-.155-.154-.223-.142-.385a.287.287,0,0,0-.024-.137c-.412-.933-.422-2.135-1.753-2.27h-.007A2.136,2.136,0,0,0,24.7,18.8v0a7.722,7.722,0,0,1-.483,1.156c-.114.19-.2.425-.307.6a.436.436,0,0,0-.059.17c-.034.216-.225.3-.235.545a.255.255,0,0,1-.012.072,7.316,7.316,0,0,0-.213.862,2.044,2.044,0,0,1-.216.571c-.322.588-.48,1.079-.843,1.645,0,.007-.021.178-.028.181-.52.247-.862-.192-1.241-.36a.84.84,0,0,1-.227-.143c-.292-.265-.629-.363-.967-.673l-.007,0c-.252-.142-.2-.36-.465-.46a1.711,1.711,0,0,1-.321-.108l-1.072-1.112c-.054-.052-.784-.521-.936-.611-1.01-.6-1.291-1.322-2.341-1.773-.221-.032-.22-.318-.412-.347a.291.291,0,0,1-.192-.116c-.139-.189-.372-.211-.5-.43a3.185,3.185,0,0,0-.255-.338c-1.233-1.053-1.961-1.471-3.228-2.551a.661.661,0,0,0-.113-.078l-.436-.236c-.4-.256-.641-.7-1.071-.878-.178-.073-.179.388-.178.466V16.96A13.82,13.82,0,0,0,9.1,19.6a.6.6,0,0,0,.057.142,7.539,7.539,0,0,1,.682,1.274.042.042,0,0,0,.006.011c.469.59.481,1.112.939,1.667l0,.007c.173.332.232.755.538.988,0,0,.129.324.132.329.641,1.471,1.969,1.879,3.149,2.945a.711.711,0,0,1,.085.1c.358.466,1.452.622,1.362,1.363a.038.038,0,0,1-.01.021,2.311,2.311,0,0,0-.417,2v0c.138.5.121.792.244,1.292.018.072.4,1.132.467,1.287A10.813,10.813,0,0,0,17.773,34.8l0,0a2.667,2.667,0,0,0,1,.8.773.773,0,0,1,.281.244c.107.17.466-.013.508.231.194.3.68.13,1.029.165a.043.043,0,0,0,.048-.037c.055-.459.693-.238,1.066-.294a.043.043,0,0,0,.017-.006A10.218,10.218,0,0,1,23.8,34.91l.008,0a12.368,12.368,0,0,0,2.734-2.453.036.036,0,0,0,.006-.009,4.076,4.076,0,0,0,.657-1.655.046.046,0,0,1,.007-.023c.507-.831,1.019.2,1.624.134a.745.745,0,0,1,.433.12c.845.584,1.682-.123,2.489.373a.968.968,0,0,0,.517.145,3.61,3.61,0,0,0,1.239-.284,1.376,1.376,0,0,0,.4-.215c.433-.355.744-.234,1.17-.537a8.683,8.683,0,0,0,.888-.335l.563-.267c.933-.6,1.508-.807,2.435-1.4l0,0a4.541,4.541,0,0,0,1.9-2.96c0-.421-.662.468-.969.591M26.752,18.894a.184.184,0,0,1,.152-.05.3.3,0,0,1,.05.011.188.188,0,0,1,.129.191c-.014.259.125.639-.18.69-.287.126-.42-.2-.526-.335-.088-.32.188-.328.374-.508m-1.833.584a.6.6,0,0,1,.658-.307.1.1,0,0,1,.081.074c.048.183.412.272.183.491a.853.853,0,0,1-.743.072.138.138,0,0,1-.079-.054,1.245,1.245,0,0,0-.083-.133.13.13,0,0,1-.018-.143m1.425,2.795a.715.715,0,0,0-.279-.026.216.216,0,0,1-.176-.119c-.041-.07-.186,0-.234-.1a1.958,1.958,0,0,1-.751-1.091.111.111,0,0,1,.016-.107.2.2,0,0,0,.023-.134.877.877,0,0,1,.158-.387.163.163,0,0,1,.151-.055l.172.027a.157.157,0,0,1,.132.123c.1.517.219,1.044.821,1.186.2.058.537.127.717-.057.048-.211-.139-.513.17-.615.47.061.46.559.515.937a.271.271,0,0,1-.089.243,1.36,1.36,0,0,1-.8.277,1.083,1.083,0,0,1-.544-.1" transform="translate(-7.634 -13.228)" fill="#fadf1a"/>
    <path id="패스_29191" data-name="패스 29191" d="M33.888,10.8a.693.693,0,0,0-.591.005A10.012,10.012,0,0,1,32,12.143l0,0c-.287.243-.584.35-.9.615a6.081,6.081,0,0,1-1.547.834l-.009.005a1.873,1.873,0,0,1-1.066.478,1.762,1.762,0,0,0-.541.22.674.674,0,0,1-.5.092,2.89,2.89,0,0,0-1.034.154,6.783,6.783,0,0,1-3.647,0,.034.034,0,0,1-.019-.009c-.333-.311-.9-.058-1.3-.209a.049.049,0,0,1-.018-.013c-.221-.245-.588-.183-.886-.269a.044.044,0,0,1-.016-.009.667.667,0,0,1-.163-.771,8.791,8.791,0,0,0,.892-2.512c.079-.206.064-.479.232-.61a.041.041,0,0,0,.012-.014c.068-.138.014-.307.107-.434.126-.263.056-.638.241-.827a.036.036,0,0,0,.01-.022,6.334,6.334,0,0,0-1.324-5.006c-.478-.7-1.538-.487-2.314-.454H18.2c-1.75.347-1.828,2.09-2.577,3.3a1.025,1.025,0,0,0-.125.31c-.074.319-.391.546-.368.9a.632.632,0,0,1-.06.295,7.741,7.741,0,0,1-.357.87,1.293,1.293,0,0,0-.134.3,3.984,3.984,0,0,1-.406.8.213.213,0,0,1-.228.1c-.339-.076-.517-.459-.839-.584a.457.457,0,0,1-.172-.107c-.319-.34-.823-.45-1.192-.774a1.557,1.557,0,0,1-.19-.209,2.585,2.585,0,0,0-1.411-1.33l-.01-.007c-.271-.253-.633-.392-.835-.732a.214.214,0,0,0-.184-.1.249.249,0,0,1-.169-.067c-.092-.085-.024-.071-.056-.17,0,0-.176-.1-.179-.1-.4-.5-1.234-.81-1.727-1.287l0,0C5.5,3.654,4.179,2.578,2.692,1.5a.038.038,0,0,1-.015-.024c-.056-.3-.51-.3-.58-.6A.321.321,0,0,0,1.962.686,3.374,3.374,0,0,0,.7,0a.3.3,0,0,0-.2.038C-.146.435.1,1.314.065,2.026c0,.066.052.272,0,.32-.122.12-.043.315-.055.474A.254.254,0,0,0,.02,2.9c.161.587.054,1.119.179,1.7a1.227,1.227,0,0,1,.027.243A6.094,6.094,0,0,0,.676,6.411a.757.757,0,0,0,.094.211c.366.548.406.943.777,1.434a2.65,2.65,0,0,1,.381.7A10.074,10.074,0,0,0,2.85,10.5c.233.391.423.865.662,1.244l0,.005A11.465,11.465,0,0,0,6.06,14.273c.007,0,.365.251.39.266.145.089.2.194.35.2a.129.129,0,0,1,.107.072c.087.2.361.162.479.389a.035.035,0,0,1,0,.022,8.656,8.656,0,0,0-.213,2,1.059,1.059,0,0,0,.125.469.785.785,0,0,1,.068.339.945.945,0,0,0,.1.363c.067.136.07.3.139.433a1.376,1.376,0,0,1,.1.329,5.705,5.705,0,0,0,.277.677.046.046,0,0,1,0,.008,1.293,1.293,0,0,0,.284.633c.045.072.2.273.2.277,1.1,1.367,2.36,3.2,4.561,3.027.009,0,.036.124.1.157.52.288.708-.463,1.188-.534a17.024,17.024,0,0,0,2.8-1.331l.009,0a6.47,6.47,0,0,1,.578-.392,1.094,1.094,0,0,0,.291-.233c.288-.337.706-.42.87-.808a.843.843,0,0,1,.25-.3c.776-.543.8-1.168,1.271-1.916a.044.044,0,0,1,.054-.016,5.457,5.457,0,0,0,1.793.424.845.845,0,0,0,.466-.095c.466-.26.885.287,1.347.332a3.185,3.185,0,0,1,.4.134.571.571,0,0,0,.3.085h.183l.015,0c.421-.16.822-.332,1.243-.495l.007,0a13.136,13.136,0,0,0,1.549-.771L27.76,18a26.444,26.444,0,0,0,4.581-2.4,4.374,4.374,0,0,0,1.38-2v0c.064-.16.073-.39.179-.509a.225.225,0,0,0,.062-.139c.032-.715.41-1.507-.059-2.129a.05.05,0,0,0-.016-.014m-2.55,4.465,0,0c-.927.593-1.5.8-2.435,1.4l-.563.267a8.657,8.657,0,0,1-.888.335c-.426.3-.737.183-1.17.538a1.377,1.377,0,0,1-.4.215,3.611,3.611,0,0,1-1.239.284.967.967,0,0,1-.517-.145c-.808-.5-1.644.211-2.489-.374a.746.746,0,0,0-.433-.12c-.606.07-1.118-.966-1.624-.134a.047.047,0,0,0-.007.023,4.076,4.076,0,0,1-.657,1.655.035.035,0,0,1-.006.009,12.364,12.364,0,0,1-2.734,2.453l-.007,0a10.222,10.222,0,0,0-2.077.993.042.042,0,0,1-.017.006c-.373.056-1.011-.165-1.066.294a.043.043,0,0,1-.048.037c-.349-.036-.835.134-1.029-.165-.042-.243-.4-.061-.508-.231a.773.773,0,0,0-.281-.244,2.666,2.666,0,0,1-1-.8l0,0A10.806,10.806,0,0,1,8.7,19.8c-.069-.155-.449-1.215-.467-1.287-.123-.5-.106-.8-.244-1.292v0a2.311,2.311,0,0,1,.418-2,.038.038,0,0,0,.01-.021c.09-.741-1-.9-1.361-1.363a.719.719,0,0,0-.085-.1c-1.18-1.066-2.508-1.474-3.149-2.945,0-.005-.127-.326-.132-.329-.306-.234-.366-.657-.538-.988l0-.007c-.458-.555-.47-1.077-.939-1.667A.048.048,0,0,1,2.2,7.792a7.549,7.549,0,0,0-.682-1.274.587.587,0,0,1-.057-.142A13.822,13.822,0,0,1,.711,3.731V1.618c0-.078,0-.539.178-.466.431.176.668.622,1.071.878l.436.236a.662.662,0,0,1,.113.078c1.267,1.08,1.994,1.5,3.228,2.551a3.188,3.188,0,0,1,.255.338c.127.219.36.241.5.43a.292.292,0,0,0,.192.116c.192.029.191.316.412.347C8.145,6.578,8.426,7.3,9.436,7.9c.152.09.882.559.936.611l1.072,1.112a1.713,1.713,0,0,0,.321.109c.265.1.213.319.465.46l.007,0c.338.31.675.408.967.673a.842.842,0,0,0,.227.143c.379.168.722.607,1.241.36.007,0,.024-.175.028-.181.363-.567.521-1.057.843-1.645a2.05,2.05,0,0,0,.216-.571,7.294,7.294,0,0,1,.213-.862.252.252,0,0,0,.012-.072c.01-.248.2-.329.235-.545a.436.436,0,0,1,.059-.17c.109-.172.193-.407.307-.6a7.732,7.732,0,0,0,.483-1.157v0a2.135,2.135,0,0,1,1.962-1.229h.007c1.331.135,1.342,1.337,1.753,2.27a.287.287,0,0,1,.024.137c-.012.162.1.23.142.385l-.043.079a.122.122,0,0,0-.023.162c.2.311.1.733.108,1.11a.86.86,0,0,1-.024.227c-.254,1.064-.623,2.089-.914,3.152a.036.036,0,0,0,0,.009v.064a.329.329,0,0,1-.046.169c-.105.177-.23.416-.31.576a.153.153,0,0,0-.014.044c-.1.623-.8,1.34-.125,1.927a.049.049,0,0,0,.015.009c.341.124.592.414.988.381a.045.045,0,0,1,.032.01c.275.224.706.064.988.261a.038.038,0,0,0,.017.007,6.256,6.256,0,0,1,1.478.17l.013,0a12.09,12.09,0,0,0,5.788-.672.041.041,0,0,1,.016,0c.091-.006.222.047.284-.056a8.974,8.974,0,0,0,2.885-1.715.569.569,0,0,1,.2-.143c.307-.123.969-1.011.969-.591a4.541,4.541,0,0,1-1.9,2.96" transform="translate(0 0)" fill="#070303"/>
    <path id="패스_29192" data-name="패스 29192" d="M220.295,71.418c.3-.051.166-.431.18-.69a.188.188,0,0,0-.129-.191.285.285,0,0,0-.05-.011.185.185,0,0,0-.152.05c-.186.179-.462.188-.374.508.106.139.239.462.526.335" transform="translate(-201.026 -64.91)" fill="#070303"/>
    <path id="패스_29193" data-name="패스 29193" d="M202.782,75.189a.139.139,0,0,0,.079.054.854.854,0,0,0,.743-.072c.229-.219-.134-.308-.183-.491a.1.1,0,0,0-.081-.074.6.6,0,0,0-.658.307.13.13,0,0,0,.018.144,1.24,1.24,0,0,1,.083.132" transform="translate(-185.397 -68.663)" fill="#070303"/>
    <path id="패스_29194" data-name="패스 29194" d="M205.464,89.788c-.056-.378-.046-.876-.515-.937-.309.1-.123.4-.17.615-.181.184-.521.114-.717.057-.6-.141-.724-.669-.821-1.186a.156.156,0,0,0-.132-.123l-.172-.027a.164.164,0,0,0-.151.055.877.877,0,0,0-.158.387.2.2,0,0,1-.023.134.111.111,0,0,0-.016.107,1.958,1.958,0,0,0,.751,1.091c.049.1.194.033.234.1a.216.216,0,0,0,.176.119.714.714,0,0,1,.279.026,1.083,1.083,0,0,0,.544.1,1.359,1.359,0,0,0,.8-.277.271.271,0,0,0,.089-.243" transform="translate(-185.318 -81.166)" fill="#070303"/>
  </g>
</svg>
