<svg xmlns="http://www.w3.org/2000/svg" xmlns:xlink="http://www.w3.org/1999/xlink" width="131.697" height="24" viewBox="0 0 131.697 24">
  <defs>
    <clipPath id="clip-path">
      <rect id="사각형_757" data-name="사각형 757" width="131.697" height="24" transform="translate(0 0)" fill="none"/>
    </clipPath>
  </defs>
  <g id="끌루와" transform="translate(0 0)">
    <g id="그룹_1305" data-name="그룹 1305" transform="translate(0 0)" clip-path="url(#clip-path)">
      <path id="패스_29150" data-name="패스 29150" d="M49.285,37.946a10.024,10.024,0,0,1-3.578.549,6.931,6.931,0,0,1-4.449-1.334,4.283,4.283,0,0,1-1.673-3.523,4.608,4.608,0,0,1,1.855-3.762A7.432,7.432,0,0,1,46.22,28.4a10.213,10.213,0,0,1,3.065.391v1.533a7.543,7.543,0,0,0-3-.58,5.08,5.08,0,0,0-3.355,1.05,3.4,3.4,0,0,0-1.264,2.746,3.271,3.271,0,0,0,1.185,2.624,4.757,4.757,0,0,0,3.177,1,7.678,7.678,0,0,0,3.255-.65Z" transform="translate(-29.895 -21.446)" fill="#1a1311"/>
      <path id="패스_29151" data-name="패스 29151" d="M84.949,33.57a4.655,4.655,0,0,1,1.7-3.743A6.888,6.888,0,0,1,91.228,28.4a6.479,6.479,0,0,1,4.338,1.388A4.454,4.454,0,0,1,97.2,33.343a4.667,4.667,0,0,1-1.669,3.727,7.775,7.775,0,0,1-8.9.05,4.377,4.377,0,0,1-1.681-3.551m2.082-.107a3.533,3.533,0,0,0,1.082,2.658,4.035,4.035,0,0,0,2.925,1.044,4.262,4.262,0,0,0,3.007-.994,3.477,3.477,0,0,0,1.074-2.683,3.644,3.644,0,0,0-1.037-2.737,4.062,4.062,0,0,0-2.954-1.009,4.181,4.181,0,0,0-2.982,1.047,3.506,3.506,0,0,0-1.115,2.674" transform="translate(-64.155 -21.447)" fill="#1a1311"/>
      <path id="패스_29152" data-name="패스 29152" d="M154.008,34.787q0,4.213-5.048,4.213-4.842,0-4.842-4.074V29.067H146.1v5.821q0,2.781,3.007,2.781,2.917,0,2.917-2.686V29.067h1.983Z" transform="translate(-108.84 -21.952)" fill="#1a1311"/>
      <path id="패스_29153" data-name="패스 29153" d="M203.957,38.837h-6.981v-9.77h1.983v8.47h5Z" transform="translate(-148.759 -21.952)" fill="#1a1311"/>
      <path id="패스_29154" data-name="패스 29154" d="M227.218,33.57a4.655,4.655,0,0,1,1.7-3.743A6.888,6.888,0,0,1,233.5,28.4a6.478,6.478,0,0,1,4.338,1.388,4.454,4.454,0,0,1,1.636,3.557A4.667,4.667,0,0,1,237.8,37.07a7.775,7.775,0,0,1-8.9.05,4.377,4.377,0,0,1-1.681-3.551m2.082-.107a3.533,3.533,0,0,0,1.082,2.658,4.035,4.035,0,0,0,2.925,1.044,4.263,4.263,0,0,0,3.007-.994,3.476,3.476,0,0,0,1.074-2.683,3.644,3.644,0,0,0-1.037-2.737,4.062,4.062,0,0,0-2.954-1.009,4.181,4.181,0,0,0-2.983,1.047,3.506,3.506,0,0,0-1.115,2.674" transform="translate(-171.599 -21.447)" fill="#1a1311"/>
      <path id="패스_29155" data-name="패스 29155" d="M288.944,30.3v8.533h-1.983v-9.77h1.983Z" transform="translate(-216.718 -21.952)" fill="#1a1311"/>
      <path id="패스_29156" data-name="패스 29156" d="M317.907,38.837h-2.322L313.5,36.175a4.157,4.157,0,0,0-1.111-1.066,2.279,2.279,0,0,0-1.144-.284h-1.074v4.011h-1.983v-9.77h4.073a5.783,5.783,0,0,1,3.078.684,2.168,2.168,0,0,1,1.087,1.939,2.219,2.219,0,0,1-.752,1.684,4.278,4.278,0,0,1-2.1.978v.025a4.2,4.2,0,0,1,1.925,1.539Zm-7.733-8.521V33.57h1.76a2.888,2.888,0,0,0,1.756-.485,1.479,1.479,0,0,0,.657-1.236q0-1.533-2.38-1.533Z" transform="translate(-232.751 -21.952)" fill="#1a1311"/>
      <path id="패스_29157" data-name="패스 29157" d="M94.846,24H0V0H94.846ZM2.2,21.8h90.44V2.2H2.2Z" transform="translate(0 0)" fill="#1a1311"/>
      <path id="패스_29158" data-name="패스 29158" d="M426.086,39.036h-8.675V37.969h8.675Zm-1.4,1.344h-7.094V39.49h8.319v2.154h-7.173v.4h7.173v1.067h-8.4V40.775h7.173ZM420.335,37.4V35.953h-2.746V34.886h3.972V37.4Zm4.347,0V35.953h-2.549V34.886h3.774V37.4Z" transform="translate(-315.236 -26.346)" fill="#1a1311"/>
      <path id="패스_29159" data-name="패스 29159" d="M462.782,43.185v-2.47h-3.636V39.648h8.477v1.067h-3.616v2.47Zm3.438-7.232h-7V34.886h8.22v2.589h-7v.494h7v1.067h-8.22V36.407h7Z" transform="translate(-346.755 -26.346)" fill="#1a1311"/>
      <path id="패스_29160" data-name="패스 29160" d="M500.075,42.478V41.411h1.9V39.277H503.2v2.134h4.051V34.337h1.225v1.4h.889v1.067h-.889v5.671Zm.844-7.653a2.4,2.4,0,0,1,3.32,0,2.2,2.2,0,0,1,0,3.213,2.4,2.4,0,0,1-3.32,0,2.224,2.224,0,0,1,0-3.213m.87.755a1.19,1.19,0,0,0-.331.841,1.215,1.215,0,0,0,.331.861,1.06,1.06,0,0,0,.8.354,1.04,1.04,0,0,0,.785-.354,1.215,1.215,0,0,0,.331-.861,1.19,1.19,0,0,0-.331-.841,1.041,1.041,0,0,0-.785-.354,1.061,1.061,0,0,0-.8.354" transform="translate(-377.665 -25.797)" fill="#1a1311"/>
    </g>
  </g>
</svg>
