<svg xmlns="http://www.w3.org/2000/svg" width="99.394" height="15.285" viewBox="0 0 99.394 15.285">
  <g id="그룹_1299" data-name="그룹 1299" transform="translate(-34.246 -572.832)">
    <path id="패스_29137" data-name="패스 29137" d="M-14.512-6.752H-18.48v-4.272h3.968Zm4.576-3.024V-8h-3.3V-9.776Zm-3.3,2.832h3.3v2.272h1.328v-8.48H-9.936v2.32h-3.3V-12.08h-6.544v6.368h6.544ZM-13.36.144c-2.144,0-3.456-.624-3.456-1.68s1.312-1.68,3.456-1.68c2.176,0,3.488.624,3.488,1.68S-11.184.144-13.36.144Zm0-4.384c-2.944,0-4.768.976-4.768,2.7,0,1.712,1.824,2.7,4.768,2.7,2.96,0,4.784-.992,4.784-2.7C-8.576-3.264-10.4-4.24-13.36-4.24Zm15.1-4.4H-1.824v-3.008H1.744Zm-4.88,0H-5.248v1.056H5.168V-8.64H3.056v-3.008H5.232V-12.7H-5.3v1.056h2.16ZM3.6-.064H-3.632V-2.448H3.6Zm2.864-5.1V-6.224H-6.512v1.056h5.84v1.68h-4.24V.992H4.88v-4.48H.64v-1.68Zm8.48-1.872a20.756,20.756,0,0,0,.368-4.256v-.752H8.176v1.072h5.856a18.242,18.242,0,0,1-.384,3.792Zm1.36.864c-1.456.208-3.088.32-4.656.384V-8.848h-1.3v3.1c-1.088.016-2.128.032-3.04.032L7.44-4.64a57.509,57.509,0,0,0,8.96-.576ZM10.816-3.344H9.5V.864H19.04V-.208H10.816ZM18.576-8.5v-4.672H17.264V-2.352h1.312V-7.408H20.64V-8.5Z" transform="translate(113 586)" fill="#101010"/>
    <path id="패스_29136" data-name="패스 29136" d="M-24.754-11.555h5.359v.586h-1.281a.576.576,0,0,0-.449.16.737.737,0,0,0-.145.5v9.117a.543.543,0,0,0,.183.465,1.348,1.348,0,0,0,.737.137h1.623a2.8,2.8,0,0,0,2.118-.863,5.836,5.836,0,0,0,1.2-3h.547L-15.129,0h-9.625V-.586h.945a.988.988,0,0,0,.68-.184.778.778,0,0,0,.2-.59v-9.023a.56.56,0,0,0-.164-.437.7.7,0,0,0-.484-.148h-1.172Zm12.4,4.1V-2.6A1.95,1.95,0,0,0-11.9-1.227a1.506,1.506,0,0,0,1.158.484A1.9,1.9,0,0,0-9.26-1.449a2.607,2.607,0,0,0,.612-1.77V-5.961a.692.692,0,0,0-.27-.582,1.912,1.912,0,0,0-1.035-.23V-7.32l2.57-.133v6.008a.836.836,0,0,0,.234.637.915.915,0,0,0,.656.223h.461v.523l-2.461.055-.156-1.437A5.305,5.305,0,0,1-9.966-.281a2.618,2.618,0,0,1-1.342.391,2.269,2.269,0,0,1-1.661-.664,3.015,3.015,0,0,1-.679-2.227v-3.18a.717.717,0,0,0-.336-.641,2.031,2.031,0,0,0-.961-.172V-7.32Zm6.317.133H-2.5v.539q-.858.031-.858.3a.6.6,0,0,0,.141.32l1.261,1.674L-.721-6.031a.545.545,0,0,0,.133-.328q0-.336-.945-.422V-7.32H1.552v.539a2.6,2.6,0,0,0-1.7.935l-1.44,1.8L.67-1.117a1.347,1.347,0,0,0,.492.41,1.958,1.958,0,0,0,.781.121V0H-1.8V-.586h.266A1.607,1.607,0,0,0-.924-.672Q-.8-.734-.8-.828a.637.637,0,0,0-.148-.289L-2.413-3.056-3.592-1.544a.946.946,0,0,0-.25.514.324.324,0,0,0,.172.3,1.777,1.777,0,0,0,.816.148V0h-3.18V-.586a2.147,2.147,0,0,0,.891-.242,3.692,3.692,0,0,0,.93-.836l1.454-1.844-2.15-2.781a1.385,1.385,0,0,0-1.125-.492Zm10.45-.133V-2.6a1.95,1.95,0,0,0,.448,1.375,1.506,1.506,0,0,0,1.158.484,1.9,1.9,0,0,0,1.485-.707,2.607,2.607,0,0,0,.612-1.77V-5.961a.692.692,0,0,0-.27-.582,1.912,1.912,0,0,0-1.035-.23V-7.32l2.57-.133v6.008a.836.836,0,0,0,.234.637.915.915,0,0,0,.656.223h.461v.523L8.276-.008,8.12-1.445A5.305,5.305,0,0,1,6.8-.281,2.618,2.618,0,0,1,5.46.109,2.269,2.269,0,0,1,3.8-.555,3.015,3.015,0,0,1,3.12-2.781v-3.18A.717.717,0,0,0,2.784-6.6a2.031,2.031,0,0,0-.961-.172V-7.32Zm6.348.133L13.4-7.453v2.961A6.5,6.5,0,0,1,14.413-6.7a1.807,1.807,0,0,1,1.469-.75,1.268,1.268,0,0,1,.949.363,1.331,1.331,0,0,1,.355.973,1.128,1.128,0,0,1-.238.766.76.76,0,0,1-.6.273.732.732,0,0,1-.566-.234.9.9,0,0,1-.215-.633.987.987,0,0,1,.125-.484.924.924,0,0,0,.117-.242q0-.117-.148-.117a1.15,1.15,0,0,0-.727.375,3.376,3.376,0,0,0-.867,1.438A7.723,7.723,0,0,0,13.6-2.7v1.57a.477.477,0,0,0,.188.406,1.1,1.1,0,0,0,.641.141h.93V0H10.812V-.586h.727a.9.9,0,0,0,.555-.145.428.428,0,0,0,.188-.348V-5.742a1.122,1.122,0,0,0-.227-.777.837.837,0,0,0-.648-.246h-.641Zm6.255,0h3.508v.531H20.2a1.15,1.15,0,0,0-.629.121.4.4,0,0,0-.168.348.481.481,0,0,0,.047.2l2.039,4.4L23-5.367a1.968,1.968,0,0,0,.164-.766.519.519,0,0,0-.227-.449,1.971,1.971,0,0,0-.906-.207V-7.32h3.047v.531A1.32,1.32,0,0,0,23.895-6L21.186.3A6.213,6.213,0,0,1,19.8,2.508a2.265,2.265,0,0,1-1.508.609,1.353,1.353,0,0,1-.941-.32A1.021,1.021,0,0,1,17,2.008a.8.8,0,0,1,.219-.578.729.729,0,0,1,.547-.227.694.694,0,0,1,.5.2.627.627,0,0,1,.2.469,1.209,1.209,0,0,1-.031.234.754.754,0,0,0-.031.172q0,.188.242.188a1.191,1.191,0,0,0,.582-.187,1.92,1.92,0,0,0,.605-.6,19.578,19.578,0,0,0,.986-1.834L18.04-6.117a1.135,1.135,0,0,0-.37-.465,1.5,1.5,0,0,0-.651-.207Z" transform="translate(59 585)" fill="#130e0b"/>
  </g>
</svg>
