<svg xmlns="http://www.w3.org/2000/svg" xmlns:xlink="http://www.w3.org/1999/xlink" width="86.982" height="19" viewBox="0 0 86.982 19">
  <defs>
    <clipPath id="clip-path">
      <rect id="사각형_2479" data-name="사각형 2479" width="86.982" height="19" transform="translate(0 0)" fill="none"/>
    </clipPath>
  </defs>
  <g id="배럴" transform="translate(108.52 -124)">
    <g id="그룹_1504" data-name="그룹 1504" transform="translate(-108.52 124)" clip-path="url(#clip-path)">
      <path id="패스_29553" data-name="패스 29553" d="M97.916,22.026a3.619,3.619,0,0,1-3.768,3.589H88.764V13.053h4.989a3.532,3.532,0,0,1,3.679,3.482A3.09,3.09,0,0,1,96.158,19.1a3.2,3.2,0,0,1,1.758,2.925m-7.088-7.035v3.3h2.925a1.651,1.651,0,0,0,0-3.3Zm5.025,6.927a1.705,1.705,0,0,0-1.705-1.759h-3.32v3.517h3.32a1.705,1.705,0,0,0,1.705-1.759" transform="translate(-65.641 -9.653)" fill="#00b2e2"/>
      <path id="패스_29554" data-name="패스 29554" d="M133.787,23.086h-5.348l-.879,2.531h-2.243l4.558-12.562h2.477l4.54,12.562h-2.225Zm-.682-1.938-1.992-5.671-1.992,5.671Z" transform="translate(-92.671 -9.653)" fill="#00b2e2"/>
      <path id="패스_29555" data-name="패스 29555" d="M178.4,21.04h-2.441v4.576H173.9V13.054h5.025a4.021,4.021,0,0,1,4.038,4.038,3.963,3.963,0,0,1-2.495,3.643l2.854,4.881h-2.261Zm-2.441-1.849h2.961a2.1,2.1,0,0,0,0-4.2h-2.961Z" transform="translate(-128.598 -9.653)" fill="#00b2e2"/>
      <path id="패스_29556" data-name="패스 29556" d="M219.6,21.04h-2.441v4.576H215.1V13.054h5.025a4.021,4.021,0,0,1,4.038,4.038,3.963,3.963,0,0,1-2.495,3.643l2.854,4.881h-2.261Zm-2.441-1.849h2.961a2.1,2.1,0,0,0,0-4.2h-2.961Z" transform="translate(-159.066 -9.653)" fill="#00b2e2"/>
      <path id="패스_29557" data-name="패스 29557" d="M311.437,23.642v1.974h-7.913V13.054h2.064V23.642Z" transform="translate(-224.455 -9.653)" fill="#00b2e2"/>
      <path id="패스_29558" data-name="패스 29558" d="M257.8,15.483c3.264-1.428,6.529,1.267,9.794-.16,0-.65-.011-1.305-.011-1.955-3.265,1.428-6.518-1.263-9.783.165Z" transform="translate(-190.642 -9.688)" fill="#00b2e2"/>
      <path id="패스_29559" data-name="패스 29559" d="M257.8,34.9c3.264-1.428,6.529,1.267,9.794-.16,0-.65-.011-1.305-.011-1.955-3.265,1.428-6.518-1.263-9.783.165Z" transform="translate(-190.642 -24.043)" fill="#00b2e2"/>
      <path id="패스_29560" data-name="패스 29560" d="M257.8,54.308c3.264-1.428,6.529,1.267,9.794-.16,0-.65-.011-1.305-.011-1.955-3.265,1.428-6.518-1.263-9.783.165Z" transform="translate(-190.642 -38.399)" fill="#00b2e2"/>
      <path id="패스_29561" data-name="패스 29561" d="M24.4,22.435c2.158-.944,4.316.838,6.475-.106,0-.43-.007-.863-.007-1.292-2.158.944-4.309-.835-6.467.109Z" transform="translate(-18.041 -15.426)" fill="#00b2e2"/>
      <path id="패스_29562" data-name="패스 29562" d="M24.4,35.269c2.158-.944,4.316.838,6.475-.106,0-.43-.007-.863-.007-1.292-2.158.944-4.309-.835-6.467.109Z" transform="translate(-18.041 -24.917)" fill="#00b2e2"/>
      <path id="패스_29563" data-name="패스 29563" d="M24.4,48.1c2.158-.944,4.316.838,6.475-.106,0-.43-.007-.863-.007-1.292-2.158.944-4.309-.835-6.467.109Z" transform="translate(-18.041 -34.407)" fill="#00b2e2"/>
      <path id="패스_29564" data-name="패스 29564" d="M9.5,19A9.5,9.5,0,1,1,19,9.5,9.511,9.511,0,0,1,9.5,19m0-17.637A8.137,8.137,0,1,0,17.637,9.5,8.146,8.146,0,0,0,9.5,1.363" transform="translate(0 0)" fill="#00b2e2"/>
    </g>
  </g>
</svg>
