<svg xmlns="http://www.w3.org/2000/svg" width="96.139" height="21" viewBox="0 0 96.139 21">
  <g id="배럴" transform="translate(0 0)">
    <g id="그룹_1310" data-name="그룹 1310" transform="translate(25.558 3.759)">
      <path id="패스_29173" data-name="패스 29173" d="M251.817,70.262a4,4,0,0,1-4.165,3.967H241.7V60.344h5.514a3.9,3.9,0,0,1,4.066,3.848,3.415,3.415,0,0,1-1.408,2.837A3.536,3.536,0,0,1,251.817,70.262Zm-7.835-7.776v3.65h3.233a1.825,1.825,0,0,0,0-3.65Zm5.554,7.657a1.885,1.885,0,0,0-1.884-1.944h-3.67v3.887h3.67A1.885,1.885,0,0,0,249.536,70.143Z" transform="translate(-241.701 -60.344)" fill="#0082c6"/>
      <path id="패스_29174" data-name="패스 29174" d="M277.123,71.432h-5.911l-.972,2.8h-2.479L272.8,60.344h2.737l5.019,13.885H278.1Zm-.754-2.142-2.2-6.268-2.2,6.268Z" transform="translate(-257.237 -60.344)" fill="#0082c6"/>
      <path id="패스_29175" data-name="패스 29175" d="M307.378,69.17h-2.7v5.058H302.4V60.344h5.554a4.444,4.444,0,0,1,4.463,4.463,4.38,4.38,0,0,1-2.757,4.027l3.154,5.395h-2.5Zm-2.7-2.043h3.273a2.325,2.325,0,0,0,0-4.641H304.68Z" transform="translate(-277.886 -60.344)" fill="#0082c6"/>
      <path id="패스_29176" data-name="패스 29176" d="M336.752,69.17h-2.7v5.058h-2.281V60.344h5.554a4.444,4.444,0,0,1,4.463,4.463,4.379,4.379,0,0,1-2.757,4.027l3.154,5.395h-2.5Zm-2.7-2.043h3.273a2.325,2.325,0,0,0,0-4.641h-3.273Z" transform="translate(-295.398 -60.344)" fill="#0082c6"/>
      <path id="패스_29177" data-name="패스 29177" d="M403.564,72.047v2.182h-8.746V60.344H397.1v11.7Z" transform="translate(-332.982 -60.344)" fill="#0082c6"/>
      <g id="그룹_1307" data-name="그룹 1307" transform="translate(48.67 0.014)">
        <path id="패스_29178" data-name="패스 29178" d="M362.218,63.011c3.608-1.578,7.216,1.4,10.824-.177,0-.718-.012-1.443-.012-2.161-3.608,1.578-7.2-1.4-10.813.183Z" transform="translate(-362.218 -60.378)" fill="#0082c6"/>
      </g>
      <g id="그룹_1308" data-name="그룹 1308" transform="translate(48.67 5.603)">
        <path id="패스_29179" data-name="패스 29179" d="M362.218,76.851c3.608-1.578,7.216,1.4,10.824-.177,0-.718-.012-1.442-.012-2.161-3.608,1.578-7.2-1.4-10.813.183Z" transform="translate(-362.218 -74.218)" fill="#0082c6"/>
      </g>
      <g id="그룹_1309" data-name="그룹 1309" transform="translate(48.67 11.192)">
        <path id="패스_29180" data-name="패스 29180" d="M362.218,90.691c3.608-1.578,7.216,1.4,10.824-.177,0-.718-.012-1.442-.012-2.161-3.608,1.578-7.2-1.4-10.813.183Z" transform="translate(-362.218 -88.058)" fill="#0082c6"/>
      </g>
    </g>
    <g id="그룹_1315" data-name="그룹 1315" transform="translate(0 0)">
      <g id="그룹_1314" data-name="그룹 1314" transform="translate(7.024 6.006)">
        <g id="그룹_1311" data-name="그룹 1311">
          <path id="패스_29181" data-name="패스 29181" d="M195.808,67.65c2.386-1.043,4.771.926,7.156-.117,0-.475-.008-.953-.008-1.428-2.386,1.043-4.763-.923-7.148.121Z" transform="translate(-195.808 -65.91)" fill="#0082c6"/>
        </g>
        <g id="그룹_1312" data-name="그룹 1312" transform="translate(0 3.695)">
          <path id="패스_29182" data-name="패스 29182" d="M195.808,76.8c2.386-1.043,4.771.926,7.156-.117,0-.475-.008-.953-.008-1.428-2.386,1.043-4.763-.923-7.148.121Z" transform="translate(-195.808 -75.06)" fill="#0082c6"/>
        </g>
        <g id="그룹_1313" data-name="그룹 1313" transform="translate(0 7.39)">
          <path id="패스_29183" data-name="패스 29183" d="M195.808,85.95c2.386-1.043,4.771.926,7.156-.117,0-.475-.008-.953-.008-1.428-2.386,1.043-4.763-.923-7.148.121Z" transform="translate(-195.808 -84.21)" fill="#0082c6"/>
        </g>
      </g>
      <path id="패스_29184" data-name="패스 29184" d="M188.915,72.037a10.5,10.5,0,1,1,10.5-10.5A10.512,10.512,0,0,1,188.915,72.037Zm0-19.494a8.994,8.994,0,1,0,8.994,8.994A9,9,0,0,0,188.915,52.543Z" transform="translate(-178.415 -51.037)" fill="#0082c6"/>
    </g>
  </g>
</svg>
