<svg xmlns="http://www.w3.org/2000/svg" width="46" height="46" viewBox="0 0 46 46"><defs><style>.a{fill:#fae100;}.b{fill:#1a1311;}</style></defs><g transform="translate(-828 -1234)"><circle class="a" cx="23" cy="23" r="23" transform="translate(828 1234)"/><path class="b" d="M345.68,207.852c-7.456,0-13.5,5.591-13.5,12.487,0,5.093,2.133,7.525,5.055,9.741l.014.006v5.977a.343.343,0,0,0,.548.276l5.119-3.8.11.048a14.627,14.627,0,0,0,2.654.242c7.456,0,13.5-5.591,13.5-12.487S353.136,207.852,345.68,207.852ZM341.154,223.5a2.819,2.819,0,0,0,2.8-2.016h1.958a4.684,4.684,0,0,1-4.753,3.9,5.061,5.061,0,1,1,0-10.123,4.689,4.689,0,0,1,4.768,3.971H343.97a2.784,2.784,0,0,0-2.816-2.114,3.056,3.056,0,0,0-3.177,3.205A3.134,3.134,0,0,0,341.154,223.5Zm12.9,1.689h-1.794v-4.046a1.288,1.288,0,0,0-1.376-1.432c-.932,0-1.53.57-1.53,1.724v3.755h-1.794v-9.9h1.794v3.723a2.3,2.3,0,0,1,2.072-.973,2.464,2.464,0,0,1,1.877.765,2.887,2.887,0,0,1,.751,2.114Z" transform="translate(505.82 1036.148)"/></g></svg>