<svg xmlns="http://www.w3.org/2000/svg" xmlns:xlink="http://www.w3.org/1999/xlink" width="152" height="134" viewBox="0 0 152 134"><defs><style>.a,.l{fill:none;}.b{isolation:isolate;clip-path:url(#a);}.c{fill:#eee;}.d{fill:#d8d8d8;}.e{fill:url(#b);}.f{fill:#e2e2e2;}.g{fill:#ececec;}.h{fill:#c2c2c2;}.i{fill:#dbdbdb;}.j{fill:#ae8448;opacity:0.6;}.k{fill:#f5f5f5;}.l{stroke:#9a9a9a;stroke-dasharray:2;}.m{fill:#fff;}.n{fill:#c9c9c9;}.o{fill:#e8e8e8;}.p,.q,.r,.s{stroke:none;}.q{fill:#cfcfcf;}.r{fill:#dedede;}.s{fill:#dbdbdb;}</style><clipPath id="a"><rect class="a" x="-1" y="7" width="152" height="134"/></clipPath><linearGradient id="b" x1="0.5" y1="0.972" x2="0.5" y2="0.028" gradientUnits="objectBoundingBox"><stop offset="0" stop-color="#fbf9f9"/><stop offset="0.34" stop-color="#f8f7f7"/><stop offset="1" stop-color="#eee"/></linearGradient></defs><g class="b" transform="translate(1 -7)"><g transform="translate(-123.878 -102.927)"><path class="c" d="M0-7.261,50.825-37.58V28.577L0,58.9Z" transform="translate(176.003 163)"/><g class="d" transform="translate(125.178 193.319)"><path class="p" d="M 50.57532119750977 28.1370677947998 L 1.459038972854614 -1.070379137992859 L -0.9928832054138184 -55.78610992431641 L 50.57532119750977 -37.40377807617188 L 50.57532119750977 28.1370677947998 Z"/><path class="q" d="M -0.7264785766601563 -55.42575073242188 L 1.7027587890625 -1.21630859375 L 50.32532119750977 27.69753265380859 L 50.32532119750977 -37.22750091552734 L -0.7264785766601563 -55.42575073242188 M -1.25927734375 -56.14649200439453 L 50.82532119750977 -37.580078125 L 50.82532119750977 28.57658767700195 L 1.21533203125 -0.9244346618652344 L -1.25927734375 -56.14649200439453 Z"/></g><g class="e" transform="translate(176.003 96.843)"><path class="p" d="M -0.02703841961920261 58.62078857421875 L -51.44048309326172 40.32482147216797 L -0.4053333699703217 18.40120697021484 L 50.14263534545898 28.69271850585938 L -0.02703841961920261 58.62078857421875 Z"/><path class="r" d="M -0.05406360328197479 58.3458137512207 L 49.4599723815918 28.8088550567627 L -0.3785600066184998 18.66178512573242 L -50.75623321533203 40.30296325683594 L -0.05406360328197479 58.3458137512207 M 7.617187520736479e-07 58.89577102661133 L -52.12475967407227 40.34667587280273 L -0.4321325719356537 18.14062309265137 L 50.82532119750977 28.57658195495605 L 7.617187520736479e-07 58.89577102661133 Z"/></g><path class="f" d="M52.661-17,61-37.58V28.577L52.661,49.152Z" transform="translate(115.003 193.319)"/><g class="g" transform="translate(174.167 137.564)"><path class="p" d="M 73.2225341796875 53.82903289794922 L 52.91089248657227 53.82903289794922 L 52.91089248657227 -11.82763576507568 L 73.2225341796875 -11.82763576507568 L 73.2225341796875 53.82903289794922 Z"/><path class="s" d="M 53.160888671875 -11.57764053344727 L 53.160888671875 53.57902908325195 L 72.9725341796875 53.57902908325195 L 72.9725341796875 -11.57764053344727 L 53.160888671875 -11.57764053344727 M 52.660888671875 -12.07764053344727 L 73.4725341796875 -12.07764053344727 L 73.4725341796875 54.07902908325195 L 52.660888671875 54.07902908325195 L 52.660888671875 -12.07764053344727 Z"/></g><path class="h" d="M4.686,44.415,55.511,14.1,50.825,28.577,0,58.9Z" transform="translate(176.003 96.843)"/><path class="i" d="M0-7.261,50.825-37.58V28.577L0,9.208Z" transform="translate(176.003 163)"/><path class="j" d="M18.791,2.23,39.3-7.95,38.077,4.3,18.791,15l.94-1.481-.94-.542.92-1.5-.92-.473.942-1.535-.942-.487.884-1.634-.884-.642L19.747,5.1l-.957-.7L19.824,2.98Z" transform="translate(238.117 244.467) rotate(-126)"/><path class="j" d="M0,0,23.817-22.339,22.463-8.9,0,12.772l.646-1.665L0,10.749.835,9.243,0,8.78.721,7.158,0,6.758l.855-1.8L0,4.482.98,2.715,0,2.172.921.51Z" transform="matrix(-0.485, -0.875, 0.875, -0.485, 175.988, 138.159)"/><path class="k" d="M.012-7.363,50.825-37.629l16.381,9.822L16.912,3.161Z" transform="translate(176.003 229.223)"/></g><path class="l" d="M4351.635,2034.656s52.786,4,67.182-12,.385-20.865-5.369-17.446-7.045,10.136-3.168,13.151,9.631,4.943,19.97,1.5a21.7,21.7,0,0,0,13.385-12.278" transform="translate(-4293.635 -1957.843)"/><path class="m" d="M.017.615h.5L.5,66.693H0Z" transform="translate(43.262 72.818)"/><path class="n" d="M.706.607.9.388,6.751,19.333l-.277.319Z" transform="translate(51.246 119.243) rotate(-41)"/><path class="n" d="M.68.056.956-.262l58.3,9.646-.215.248Z" transform="translate(68.446 130.243) rotate(-41)"/><path class="o" d="M1.093.44.916.286,59.1,10.738l.212.185Z" transform="translate(55.695 38.693) rotate(-41)"/><path class="m" d="M-.124,1.674l.31-.132L.577,23.779l-.454.193Z" transform="matrix(0.921, 0.391, -0.391, 0.921, 52.546, 51.316)"/><path class="f" d="M.133,2.125l.216-.092L1.716,17.171H1.478Z" transform="matrix(0.921, 0.391, -0.391, 0.921, 57.251, 36.316)"/></g></svg>