<svg xmlns="http://www.w3.org/2000/svg" xmlns:xlink="http://www.w3.org/1999/xlink" width="182" height="123" viewBox="0 0 182 123"><defs><style>.a{fill:none;}.b{isolation:isolate;clip-path:url(#a);}.c{fill:#eee;}.d{fill:#d8d8d8;}.e{fill:url(#b);}.f,.r{fill:#ececec;}.g{fill:#bebebe;}.h{fill:#d5d5d5;}.i,.j{fill:#ae8448;}.i,.j,.p{opacity:0.6;}.k{fill:#f5f5f5;}.l{fill:#c9c9c9;}.m{fill:#e8e8e8;}.n{fill:#e2e2e2;}.o{fill:#fff;}.p{fill:url(#c);}.q{fill:#dbc29e;}.r{stroke:#fff;}.s{fill:url(#d);}.t,.u,.v,.w,.x{stroke:none;}.u{fill:#cfcfcf;}.v{fill:#dedede;}.w{fill:#d9d9d9;}.x{fill:#a47c44;}</style><clipPath id="a"><rect class="a" x="-1" y="7" width="182" height="123"/></clipPath><linearGradient id="b" x1="0.5" y1="0.96" x2="0.5" gradientUnits="objectBoundingBox"><stop offset="0" stop-color="#fbf9f9"/><stop offset="1" stop-color="#eee"/></linearGradient><linearGradient id="c" x1="0.052" y1="0.556" x2="0.399" y2="0.561" gradientUnits="objectBoundingBox"><stop offset="0" stop-color="#ae8448"/><stop offset="0.536" stop-color="#9b7844"/><stop offset="1" stop-color="#ae8448"/></linearGradient><linearGradient id="d" x1="0.936" y1="0.427" x2="0.454" y2="0.385" gradientUnits="objectBoundingBox"><stop offset="0" stop-color="#f3f3f3"/><stop offset="0.529" stop-color="#d9d9d9"/><stop offset="1" stop-color="#f5f5f5"/></linearGradient></defs><g class="b" transform="translate(1 -7)"><g transform="translate(-99.281 -97.395)"><path class="c" d="M0-7.261,50.825-37.58V28.577L0,58.9Z" transform="translate(151.406 157.468)"/><g class="d" transform="translate(100.581 187.787)"><path class="t" d="M 50.57532119750977 28.1370677947998 L 1.459038972854614 -1.070379137992859 L -0.9928832054138184 -55.78610992431641 L 50.57532119750977 -37.40377807617188 L 50.57532119750977 28.1370677947998 Z"/><path class="u" d="M -0.7264785766601563 -55.42575073242188 L 1.7027587890625 -1.21630859375 L 50.32532119750977 27.69753265380859 L 50.32532119750977 -37.22750091552734 L -0.7264785766601563 -55.42575073242188 M -1.25927734375 -56.14649200439453 L 50.82532119750977 -37.580078125 L 50.82532119750977 28.57658767700195 L 1.21533203125 -0.9244346618652344 L -1.25927734375 -56.14649200439453 Z"/></g><g class="e" transform="translate(151.406 91.311)"><path class="t" d="M -0.02703841961920261 58.62078857421875 L -51.44048309326172 40.32482147216797 L -0.4053333699703217 18.40120697021484 L 50.14263534545898 28.69271850585938 L -0.02703841961920261 58.62078857421875 Z"/><path class="v" d="M -0.05406360328197479 58.3458137512207 L 49.4599723815918 28.8088550567627 L -0.3785600066184998 18.66178512573242 L -50.75623321533203 40.30296325683594 L -0.05406360328197479 58.3458137512207 M 7.617187520736479e-07 58.89577102661133 L -52.12475967407227 40.34667587280273 L -0.4321325719356537 18.14062309265137 L 50.82532119750977 28.57658195495605 L 7.617187520736479e-07 58.89577102661133 Z"/></g><g class="f" transform="translate(156.882 126.065) rotate(7)"><path class="t" d="M 73.2225341796875 53.82903289794922 L 52.91089248657227 53.82903289794922 L 52.91089248657227 -11.82763576507568 L 73.2225341796875 -11.82763576507568 L 73.2225341796875 53.82903289794922 Z"/><path class="w" d="M 53.160888671875 -11.57764053344727 L 53.160888671875 53.57902908325195 L 72.9725341796875 53.57902908325195 L 72.9725341796875 -11.57764053344727 L 53.160888671875 -11.57764053344727 M 52.660888671875 -12.07764053344727 L 73.4725341796875 -12.07764053344727 L 73.4725341796875 54.07902908325195 L 52.660888671875 54.07902908325195 L 52.660888671875 -12.07764053344727 Z"/></g><path class="g" d="M4.686,44.415,55.511,14.1,50.825,28.577,0,58.9Z" transform="translate(151.406 91.311)"/><path class="h" d="M0-7.261,50.825-37.58V28.577L0,9.208Z" transform="translate(151.406 157.468)"/><path class="i" d="M18.791,2.23,39.3-7.95,38.077,4.3,18.791,15l.94-1.481-.94-.542.92-1.5-.92-.473.942-1.535-.942-.487.884-1.634-.884-.642L19.747,5.1l-.957-.7L19.824,2.98Z" transform="translate(213.52 238.935) rotate(-126)"/><g class="j" transform="matrix(-0.485, -0.875, 0.875, -0.485, 151.391, 132.627)"><path class="t" d="M 0.6439360380172729 11.80320167541504 L 0.8790403604507446 11.1970682144165 L 0.9579103589057922 10.99373817443848 L 0.7671603560447693 10.8879976272583 L 0.3398619294166565 10.65114402770996 L 1.053490400314331 9.363718032836914 L 1.174690365791321 9.145068168640137 L 0.9560303688049316 9.023858070373535 L 0.3214918971061707 8.672130584716797 L 0.9498403668403625 7.259518146514893 L 1.04291033744812 7.050288200378418 L 0.8426203727722168 6.939268112182617 L 0.3264734148979187 6.65315580368042 L 1.080880403518677 5.06315803527832 L 1.181480288505554 4.851118087768555 L 0.976210355758667 4.737338066101074 L 0.3398576080799103 4.384602069854736 L 1.19821035861969 2.836088180541992 L 1.31941032409668 2.617438077926636 L 1.100750327110291 2.496228218078613 L 0.3398618698120117 2.074463367462158 L 1.139600396156311 0.631688117980957 L 1.260800361633301 0.4130381047725677 L 1.042140364646912 0.2918381094932556 L 0.421244204044342 -0.05233336240053177 L 23.50153160095215 -21.69987678527832 L 22.2230339050293 -9.021013259887695 L 0.6439360380172729 11.80320167541504 Z"/><path class="x" d="M 1.250738620758057 10.87020874023438 L 21.98348808288574 -9.137263298034668 L 23.18584442138672 -21.06104278564453 L 0.8424854874610901 -0.1046817898750305 L 1.163350343704224 0.07317810505628586 L 1.600650310516357 0.315588116645813 L 1.358250379562378 0.7528880834579468 L 0.6797115206718445 1.977012157440186 L 1.22195029258728 2.277578115463257 L 1.659260392189026 2.519978046417236 L 1.416860342025757 2.957288026809692 L 0.6797114610671997 4.287143707275391 L 1.097410321235657 4.518678188323975 L 1.507950305938721 4.746248245239258 L 1.306740403175354 5.170318126678467 L 0.6529406309127808 6.548274517059326 L 0.9638303518295288 6.720608234405518 L 1.364400386810303 6.942657947540283 L 1.178260326385498 7.361128330230713 L 0.6429834961891174 8.564502716064453 L 1.077230334281921 8.805208206176758 L 1.514540314674377 9.047608375549316 L 1.272140383720398 9.484917640686035 L 0.6797115802764893 10.55369281768799 L 0.888360321521759 10.66934776306152 L 1.250738620758057 10.87020874023438 M 3.43933095336979e-07 12.77203845977783 L 0.6459603309631348 11.10665798187256 L 3.43933095336979e-07 10.74859809875488 L 0.8348303437232971 9.242518424987793 L 3.43933095336979e-07 8.779767990112305 L 0.7214203476905823 7.157917976379395 L 3.43933095336979e-07 6.758018016815186 L 0.8550103306770325 4.955987930297852 L 3.43933095336979e-07 4.482048034667969 L 0.9795503616333008 2.714888095855713 L 3.43933095336979e-07 2.171918153762817 L 0.9209403395652771 0.5104880928993225 L 3.43933095336979e-07 -1.898193318083941e-06 L 23.81722068786621 -22.33873176574707 L 22.46257972717285 -8.904751777648926 L 3.43933095336979e-07 12.77203845977783 Z"/></g><path class="k" d="M.012-7.363,50.825-37.629l16.381,9.822L16.912,3.161Z" transform="translate(151.406 223.691)"/><path class="l" d="M.706.607.9.388,6.751,19.333l-.277.319Z" transform="translate(150.528 216.638) rotate(-41)"/><path class="l" d="M.68.056.956-.262l58.3,9.646-.215.248Z" transform="translate(167.728 227.638) rotate(-41)"/><path class="m" d="M1.093.44.916.286,59.1,10.738l.212.185Z" transform="translate(154.977 136.088) rotate(-41)"/><path class="n" d="M.133,2.125l.216-.092L1.716,17.171H1.478Z" transform="matrix(0.921, 0.391, -0.391, 0.921, 156.532, 133.711)"/><path class="i" d="M8.752-7.223-6.54-9.606v7.451L8.752,1.874Z" transform="translate(193.474 140.637)"/><path class="i" d="M7.7-9.231l-14.234.015,0,9.082H7.7Z" transform="translate(208.772 142.637)"/><path class="i" d="M12.876-7.223-5.916-12.268v7.451L12.876,1.874Z" transform="translate(189.351 164.863)"/><path class="i" d="M1.809-12.224l-7.941-.012v9.109H1.809Z" transform="translate(208.351 169.863)"/><path class="o" d="M89.3-47.644,61-37.58V28.577L89.3,18.513Z" transform="translate(90.406 187.787)"/></g><g transform="translate(-107.959 -103.299)"><path class="p" d="M15.006-4.484c5.344,0,12.009-1.5,15-.4.039.067,0,9.6,0,10.276,0,1.912-4.15,5.458-15,5.458S0,7.3,0,5.391C0,4.852-.063-4.751,0-4.885,2.1-5.9,9.057-4.484,15.006-4.484Z" transform="translate(257.985 217.296)"/><ellipse class="q" cx="15.002" cy="5.055" rx="15.002" ry="5.055" transform="translate(258.006 207.299)"/><g class="r" transform="translate(261.468 208.107)"><ellipse class="t" cx="11.54" cy="3.901" rx="11.54" ry="3.901"/><ellipse class="a" cx="11.54" cy="3.901" rx="11.04" ry="3.401"/></g><path class="s" d="M10.386,0c5.736,0,10.386,1.421,10.386,3.173s-4.65,3.173-10.386,3.173S0,4.926,0,3.173,4.65,0,10.386,0Z" transform="translate(262.622 208.61)"/></g></g></svg>