<svg id="NFL_Logo" xmlns="http://www.w3.org/2000/svg" xmlns:xlink="http://www.w3.org/1999/xlink" width="72" height="98.926" viewBox="0 0 72 98.926">
  <defs>
    <clipPath id="clip-path">
      <rect id="사각형_718" data-name="사각형 718" width="72" height="98.926" fill="none"/>
    </clipPath>
    <clipPath id="clip-path-2">
      <rect id="사각형_717" data-name="사각형 717" width="59.733" height="47.257" fill="none"/>
    </clipPath>
  </defs>
  <g id="그룹_1500" data-name="그룹 1500" clip-path="url(#clip-path)">
    <path id="패스_29512" data-name="패스 29512" d="M69.616,11.253a20.008,20.008,0,0,1-16.635,3.371A24.317,24.317,0,0,1,36,0,24.311,24.311,0,0,1,19.019,14.624,20.006,20.006,0,0,1,2.384,11.253H0V72.575a12.106,12.106,0,0,0,2.895,7.66C6,84.01,11.271,86.457,18.554,87.509c5.8.839,10.09,2.663,13.115,5.574A31.18,31.18,0,0,1,36,98.926a32.609,32.609,0,0,1,4.331-5.843c3.025-2.911,7.316-4.735,13.115-5.574,7.282-1.052,12.553-3.5,15.66-7.274A12.122,12.122,0,0,0,72,72.575V11.253Z" fill="#fff"/>
    <path id="패스_29513" data-name="패스 29513" d="M73.358,21.591a21.4,21.4,0,0,1-17.382,3.076A26.175,26.175,0,0,1,39.518,12.828,26.172,26.172,0,0,1,23.061,24.667,21.4,21.4,0,0,1,5.679,21.591V80.518c0,2,.839,10.507,16.7,12.8,6.264.907,10.942,2.921,14.3,6.155a19.169,19.169,0,0,1,2.833,3.429,19.289,19.289,0,0,1,2.83-3.429c3.365-3.235,8.043-5.248,14.307-6.155,15.863-2.292,16.7-10.8,16.7-12.8Z" transform="translate(-3.518 -7.947)" fill="#0b2a51"/>
    <g id="그룹_1499" data-name="그룹 1499" transform="translate(6.134 41.7)" style="mix-blend-mode: normal;isolation: isolate">
      <g id="그룹_1498" data-name="그룹 1498">
        <g id="그룹_1497" data-name="그룹 1497" clip-path="url(#clip-path-2)">
          <path id="패스_29514" data-name="패스 29514" d="M45.987,156.853s4.6-5.675,16.568-7.52c13.7-2.115,13.3-8.549,13.3-8.876V109.6H16.122v30.861c0,.325-.4,6.76,13.3,8.876,11.963,1.846,16.567,7.52,16.567,7.52" transform="translate(-16.121 -109.596)" fill="#fff"/>
        </g>
      </g>
    </g>
    <path id="패스_29515" data-name="패스 29515" d="M36.583,137.1l0-14.677-1.843-1.032v-3.806h8.388v3.806l-1.753,1.032v29.938l-4.484-1.343-6.482-19.124V144.5l2.058,1.581v3.886l-9-2.287v-3.312l2.059-.805V122.436l-2.109-1.045v-3.806h6.81Z" transform="translate(-14.506 -72.846)" fill="#c8000f"/>
    <path id="패스_29516" data-name="패스 29516" d="M87.013,150.522l1.8,2.152v3.806L79.9,153.15v-3.231l1.968-.805V122.423l-1.956-.989v-3.849H95.385v7.745h-3.4l-1.031-3.18H87.013v8.955h2.956l1.164-1.7H93.5v7.97H91.133l-1.119-1.611h-3Z" transform="translate(-49.497 -72.845)" fill="#c8000f"/>
    <path id="패스_29517" data-name="패스 29517" d="M124.464,151.87v-3.806l2.214-1.818V122.423l-1.89-.989v-3.849h8.925v3.849l-1.754.989v22.351l3.835-1.036.735-5.858H140.2v9.786Z" transform="translate(-77.107 -72.845)" fill="#c8000f"/>
    <path id="패스_29518" data-name="패스 29518" d="M15.806,84.6l-2.7-2.033h3.3L17.5,79.44l1.09,3.128h3.3l-2.7,2.033.994,3.175L17.5,85.89l-2.684,1.886Z" transform="translate(-8.119 -49.214)" fill="#fff"/>
    <path id="패스_29519" data-name="패스 29519" d="M46.61,84.6l-2.7-2.033h3.3L48.3,79.44l1.09,3.128h3.3L49.99,84.6l.994,3.175L48.3,85.89l-2.684,1.886Z" transform="translate(-27.202 -49.214)" fill="#fff"/>
    <path id="패스_29520" data-name="패스 29520" d="M15.806,56.8l-2.7-2.033h3.3L17.5,51.64l1.09,3.128h3.3l-2.7,2.033.994,3.175L17.5,58.089l-2.684,1.886Z" transform="translate(-8.119 -31.991)" fill="#fff"/>
    <path id="패스_29521" data-name="패스 29521" d="M46.61,56.8l-2.7-2.033h3.3L48.3,51.64l1.09,3.128h3.3L49.99,56.8l.994,3.175L48.3,58.089l-2.684,1.886Z" transform="translate(-27.202 -31.991)" fill="#fff"/>
    <path id="패스_29522" data-name="패스 29522" d="M160.12,87.775l-2.684-1.886-2.684,1.886.993-3.175-2.7-2.033h3.3l1.09-3.127,1.09,3.127h3.3l-2.7,2.033Z" transform="translate(-94.813 -49.214)" fill="#fff"/>
    <path id="패스_29523" data-name="패스 29523" d="M129.316,87.775l-2.684-1.886-2.684,1.886.993-3.175-2.7-2.033h3.3l1.09-3.127,1.09,3.127h3.3l-2.7,2.033Z" transform="translate(-75.73 -49.214)" fill="#fff"/>
    <path id="패스_29524" data-name="패스 29524" d="M160.12,59.975l-2.684-1.886-2.684,1.886.993-3.175-2.7-2.033h3.3l1.09-3.128,1.09,3.128h3.3l-2.7,2.033Z" transform="translate(-94.813 -31.992)" fill="#fff"/>
    <path id="패스_29525" data-name="패스 29525" d="M129.316,59.975l-2.684-1.886-2.684,1.886.993-3.175-2.7-2.033h3.3l1.09-3.128,1.09,3.128h3.3l-2.7,2.033Z" transform="translate(-75.73 -31.992)" fill="#fff"/>
    <path id="패스_29526" data-name="패스 29526" d="M87.28,42.248A15.973,15.973,0,0,0,83.928,44.9a9.4,9.4,0,0,1,1.221.833c-.295.261-.6.543-.877.809a9.135,9.135,0,0,0-3.618-1.829c.34-.244.7-.484,1.058-.716a9.59,9.59,0,0,1,1.084.357,18.341,18.341,0,0,1,4.113-2.4,2,2,0,0,0-.811-.1c-8.67.112-16.658,6.585-15.15,17.661a13.97,13.97,0,0,0,1.2,4.248,33.555,33.555,0,0,1,2.941-10.292,9,9,0,0,0-1.307-.362c.21-.441.5-1,.5-1a9.143,9.143,0,0,1,4.028,1.845c-.279.451-.468.746-.6.978a9.384,9.384,0,0,0-1.275-.85,35.741,35.741,0,0,0-3.817,9.852c.024.123.275.187.478.161,9.5-1.23,13.948-6.076,15.3-11.327a16.2,16.2,0,0,0-.593-9.985c-.083-.206-.246-.549-.522-.525M79.111,52.71a9.072,9.072,0,0,0-4.091-1.931s.434-.708.681-1.075a9.191,9.191,0,0,1,4.116,1.982c-.252.36-.492.706-.705,1.024m1.56-2.19a9.21,9.21,0,0,0-4.119-2c.241-.312.524-.643.8-.95a9.266,9.266,0,0,1,4.1,1.961c-.275.33-.532.665-.775.984m1.737-2.09a9.252,9.252,0,0,0-3.983-1.936c.347-.328.7-.609,1.014-.869a9.184,9.184,0,0,1,3.815,1.914c-.293.3-.577.593-.846.891" transform="translate(-43.839 -25.924)" fill="#fff"/>
  </g>
</svg>
